<?xml version="1.0" encoding="utf-8"?>
<!-- Generator: Adobe Illustrator 16.0.0, SVG Export Plug-In . SVG Version: 6.00 Build 0)  -->
<!DOCTYPE svg PUBLIC "-//W3C//DTD SVG 1.1//EN" "http://www.w3.org/Graphics/SVG/1.1/DTD/svg11.dtd">
<svg version="1.1" xmlns="http://www.w3.org/2000/svg" xmlns:xlink="http://www.w3.org/1999/xlink" x="0px" y="0px" width="640px"
	 height="480px" viewBox="0 0 640 480" enable-background="new 0 0 640 480" xml:space="preserve">
<g id="Layer_1">
	<polygon fill="none" stroke="#FFFFFF" stroke-width="5" stroke-miterlimit="10" points="185.544,146.5 162.516,107 185.544,67.5 
		231.603,67.5 254.631,107 231.603,146.5 	"/>
	<polygon fill="none" stroke="#FFFFFF" stroke-width="5" stroke-miterlimit="10" points="185.544,231.5 162.516,192 185.544,152.5 
		231.603,152.5 254.631,192 231.603,231.5 	"/>
	<polygon fill="none" stroke="#FFFFFF" stroke-width="5" stroke-miterlimit="10" points="111.544,189.5 88.516,150 111.544,110.5 
		157.603,110.5 180.631,150 157.603,189.5 	"/>
	<line fill="none" stroke="#FFFFFF" stroke-width="3" stroke-miterlimit="10" x1="188" y1="72.5" x2="229" y2="72.5"/>
	<line fill="none" stroke="#FFFFFF" stroke-width="3" stroke-miterlimit="10" x1="188" y1="226.5" x2="229" y2="226.5"/>
	<line fill="none" stroke="#FFFFFF" stroke-width="3" stroke-miterlimit="10" x1="94.252" y1="150.253" x2="114.75" y2="114.746"/>
</g>
<g id="Layer_5">
	<g>
		<path fill="#FFFFFF" d="M138.914,153.044l3.41,0.861c-0.715,2.801-2.001,4.937-3.858,6.407s-4.128,2.206-6.812,2.206
			c-2.777,0-5.036-0.565-6.776-1.696s-3.064-2.769-3.973-4.913s-1.362-4.447-1.362-6.908c0-2.684,0.513-5.024,1.538-7.022
			s2.484-3.516,4.377-4.553s3.976-1.556,6.249-1.556c2.578,0,4.746,0.656,6.504,1.969s2.982,3.158,3.674,5.537l-3.357,0.791
			c-0.598-1.875-1.465-3.24-2.602-4.096s-2.566-1.283-4.289-1.283c-1.98,0-3.636,0.475-4.966,1.424s-2.265,2.224-2.804,3.823
			s-0.809,3.249-0.809,4.948c0,2.191,0.319,4.104,0.958,5.739s1.632,2.856,2.979,3.665s2.807,1.213,4.377,1.213
			c1.91,0,3.527-0.551,4.852-1.652S138.445,155.212,138.914,153.044z"/>
		<path fill="#FFFFFF" d="M144.336,159.434l1.23-0.164c0.141,0.697,0.382,1.2,0.721,1.507s0.753,0.461,1.241,0.461
			c0.579,0,1.067-0.201,1.466-0.602s0.598-0.898,0.598-1.49c0-0.565-0.185-1.031-0.554-1.398s-0.838-0.55-1.408-0.55
			c-0.232,0-0.522,0.045-0.868,0.137l0.137-1.08c0.082,0.009,0.148,0.014,0.198,0.014c0.524,0,0.996-0.137,1.415-0.41
			s0.629-0.695,0.629-1.265c0-0.451-0.153-0.825-0.458-1.121s-0.7-0.444-1.183-0.444c-0.479,0-0.877,0.15-1.196,0.451
			s-0.524,0.752-0.615,1.354l-1.23-0.219c0.15-0.825,0.492-1.464,1.025-1.917s1.196-0.68,1.989-0.68c0.547,0,1.05,0.117,1.511,0.352
			s0.813,0.555,1.056,0.96s0.366,0.836,0.366,1.292c0,0.433-0.116,0.827-0.349,1.183s-0.577,0.638-1.032,0.848
			c0.592,0.137,1.053,0.42,1.381,0.851s0.492,0.97,0.492,1.617c0,0.875-0.319,1.617-0.957,2.225s-1.445,0.913-2.42,0.913
			c-0.879,0-1.61-0.262-2.191-0.786S144.418,160.268,144.336,159.434z"/>
	</g>
	<g>
		<path fill="#FFFFFF" d="M194.966,117.412v-25.77h3.41v10.582h13.395V91.643h3.41v25.77h-3.41v-12.146h-13.395v12.146H194.966z"/>
		<path fill="#FFFFFF" d="M220.556,111.978c-0.51-0.187-0.889-0.454-1.135-0.8s-0.369-0.761-0.369-1.244
			c0-0.729,0.262-1.342,0.786-1.839s1.221-0.745,2.092-0.745c0.875,0,1.579,0.254,2.112,0.762s0.8,1.127,0.8,1.856
			c0,0.465-0.122,0.869-0.366,1.213s-0.614,0.609-1.111,0.796c0.615,0.201,1.083,0.524,1.405,0.971s0.482,0.98,0.482,1.6
			c0,0.857-0.303,1.577-0.909,2.16s-1.404,0.875-2.393,0.875s-1.787-0.293-2.393-0.878s-0.909-1.316-0.909-2.191
			c0-0.652,0.165-1.197,0.496-1.637S219.945,112.137,220.556,111.978z M219.914,114.521c0,0.351,0.083,0.69,0.25,1.019
			s0.414,0.582,0.742,0.762s0.681,0.27,1.06,0.27c0.588,0,1.073-0.189,1.456-0.567s0.574-0.859,0.574-1.442
			c0-0.592-0.197-1.083-0.591-1.47s-0.888-0.581-1.48-0.581c-0.579,0-1.059,0.191-1.439,0.574S219.914,113.946,219.914,114.521z
			 M220.31,109.893c0,0.474,0.153,0.861,0.458,1.162s0.702,0.451,1.189,0.451c0.474,0,0.862-0.149,1.166-0.448
			s0.455-0.664,0.455-1.097c0-0.451-0.156-0.831-0.468-1.138s-0.701-0.461-1.166-0.461c-0.469,0-0.859,0.15-1.169,0.451
			S220.31,109.473,220.31,109.893z"/>
	</g>
	<g>
		<path fill="#FFFFFF" d="M193.824,190.449c0-4.277,1.148-7.626,3.445-10.046s5.262-3.63,8.895-3.63
			c2.379,0,4.523,0.568,6.434,1.705s3.366,2.722,4.368,4.755s1.503,4.339,1.503,6.917c0,2.613-0.527,4.951-1.582,7.014
			s-2.549,3.624-4.482,4.685s-4.02,1.591-6.258,1.591c-2.426,0-4.594-0.586-6.504-1.758s-3.357-2.771-4.342-4.799
			S193.824,192.711,193.824,190.449z M197.339,190.502c0,3.105,0.835,5.552,2.505,7.339s3.765,2.681,6.284,2.681
			c2.566,0,4.679-0.902,6.337-2.707s2.487-4.365,2.487-7.682c0-2.098-0.354-3.929-1.063-5.493s-1.746-2.777-3.111-3.639
			s-2.897-1.292-4.597-1.292c-2.414,0-4.491,0.829-6.231,2.487S197.339,186.623,197.339,190.502z"/>
		<path fill="#FFFFFF" d="M220.673,200.354l1.23-0.164c0.141,0.697,0.382,1.2,0.721,1.507s0.753,0.461,1.241,0.461
			c0.579,0,1.067-0.201,1.466-0.602s0.598-0.898,0.598-1.49c0-0.565-0.185-1.031-0.554-1.398s-0.838-0.55-1.408-0.55
			c-0.232,0-0.522,0.045-0.868,0.137l0.137-1.08c0.082,0.009,0.148,0.014,0.198,0.014c0.524,0,0.996-0.137,1.415-0.41
			s0.629-0.695,0.629-1.265c0-0.451-0.153-0.825-0.458-1.121s-0.7-0.444-1.183-0.444c-0.479,0-0.877,0.15-1.196,0.451
			s-0.524,0.752-0.615,1.354l-1.23-0.219c0.15-0.825,0.492-1.464,1.025-1.917s1.196-0.68,1.989-0.68c0.547,0,1.05,0.117,1.511,0.352
			s0.813,0.555,1.056,0.96s0.366,0.836,0.366,1.292c0,0.433-0.116,0.827-0.349,1.183s-0.577,0.638-1.032,0.848
			c0.592,0.137,1.053,0.42,1.381,0.851s0.492,0.97,0.492,1.617c0,0.875-0.319,1.617-0.957,2.225s-1.445,0.913-2.42,0.913
			c-0.879,0-1.61-0.262-2.191-0.786S220.755,201.188,220.673,200.354z"/>
	</g>
</g>
<g id="Layer_7">
	<polygon fill="none" stroke="#FFFFFF" stroke-width="5" stroke-miterlimit="10" points="458.603,153.5 481.631,193 458.603,232.5 
		412.544,232.5 389.516,193 412.544,153.5 	"/>
	<polygon fill="none" stroke="#FFFFFF" stroke-width="5" stroke-miterlimit="10" points="458.603,68.5 481.631,108 458.603,147.5 
		412.544,147.5 389.516,108 412.544,68.5 	"/>
	<polygon fill="none" stroke="#FFFFFF" stroke-width="5" stroke-miterlimit="10" points="532.603,110.5 555.631,150 532.603,189.5 
		486.544,189.5 463.516,150 486.544,110.5 	"/>
	<line fill="none" stroke="#FFFFFF" stroke-width="3" stroke-miterlimit="10" x1="456" y1="227.5" x2="415" y2="227.5"/>
	<line fill="none" stroke="#FFFFFF" stroke-width="3" stroke-miterlimit="10" x1="456" y1="73.5" x2="415" y2="73.5"/>
	
		<line fill="none" stroke="#FFFFFF" stroke-width="3" stroke-miterlimit="10" x1="549.895" y1="149.747" x2="529.396" y2="185.254"/>
</g>
<g id="Layer_8">
	<g>
		<path fill="#FFFFFF" d="M421.467,117.412v-25.77h3.41v10.582h13.395V91.643h3.41v25.77h-3.41v-12.146h-13.395v12.146H421.467z"/>
		<path fill="#FFFFFF" d="M447.057,111.978c-0.511-0.187-0.889-0.454-1.135-0.8s-0.369-0.761-0.369-1.244
			c0-0.729,0.262-1.342,0.785-1.839c0.524-0.497,1.222-0.745,2.092-0.745c0.875,0,1.58,0.254,2.113,0.762s0.799,1.127,0.799,1.856
			c0,0.465-0.121,0.869-0.365,1.213s-0.614,0.609-1.111,0.796c0.615,0.201,1.084,0.524,1.405,0.971s0.481,0.98,0.481,1.6
			c0,0.857-0.303,1.577-0.908,2.16c-0.606,0.583-1.404,0.875-2.393,0.875c-0.989,0-1.787-0.293-2.393-0.878
			c-0.606-0.585-0.91-1.316-0.91-2.191c0-0.652,0.166-1.197,0.496-1.637S446.445,112.137,447.057,111.978z M446.414,114.521
			c0,0.351,0.082,0.69,0.249,1.019s0.413,0.582,0.741,0.762s0.682,0.27,1.061,0.27c0.588,0,1.072-0.189,1.455-0.567
			s0.574-0.859,0.574-1.442c0-0.592-0.197-1.083-0.591-1.47s-0.888-0.581-1.479-0.581c-0.579,0-1.059,0.191-1.439,0.574
			S446.414,113.946,446.414,114.521z M446.811,109.893c0,0.474,0.152,0.861,0.457,1.162c0.306,0.301,0.702,0.451,1.189,0.451
			c0.475,0,0.863-0.149,1.166-0.448s0.455-0.664,0.455-1.097c0-0.451-0.156-0.831-0.469-1.138s-0.701-0.461-1.166-0.461
			c-0.469,0-0.858,0.15-1.168,0.451C446.965,109.113,446.811,109.473,446.811,109.893z"/>
	</g>
	<g>
		<path fill="#FFFFFF" d="M419.824,190.449c0-4.277,1.148-7.626,3.445-10.046s5.262-3.63,8.895-3.63
			c2.379,0,4.523,0.568,6.434,1.705s3.365,2.722,4.367,4.755s1.504,4.339,1.504,6.917c0,2.613-0.527,4.951-1.582,7.014
			s-2.549,3.624-4.482,4.685s-4.02,1.591-6.258,1.591c-2.426,0-4.594-0.586-6.504-1.758s-3.357-2.771-4.342-4.799
			S419.824,192.711,419.824,190.449z M423.34,190.502c0,3.105,0.834,5.552,2.504,7.339s3.766,2.681,6.285,2.681
			c2.566,0,4.678-0.902,6.336-2.707s2.488-4.365,2.488-7.682c0-2.098-0.355-3.929-1.064-5.493s-1.746-2.777-3.111-3.639
			s-2.896-1.292-4.596-1.292c-2.414,0-4.492,0.829-6.232,2.487S423.34,186.623,423.34,190.502z"/>
		<path fill="#FFFFFF" d="M453.133,201.817V203h-6.623c-0.01-0.296,0.038-0.581,0.143-0.854c0.169-0.451,0.439-0.896,0.811-1.333
			s0.908-0.943,1.609-1.518c1.09-0.893,1.826-1.601,2.209-2.123s0.574-1.015,0.574-1.48c0-0.488-0.175-0.899-0.523-1.234
			s-0.803-0.502-1.363-0.502c-0.593,0-1.066,0.178-1.422,0.533s-0.536,0.848-0.541,1.477l-1.264-0.13
			c0.086-0.943,0.412-1.662,0.977-2.157c0.565-0.495,1.324-0.742,2.277-0.742c0.961,0,1.723,0.267,2.283,0.8s0.84,1.194,0.84,1.982
			c0,0.401-0.082,0.795-0.246,1.183s-0.436,0.795-0.816,1.224s-1.013,1.016-1.896,1.764c-0.738,0.62-1.213,1.04-1.422,1.261
			c-0.21,0.221-0.383,0.443-0.52,0.667H453.133z"/>
	</g>
	<g>
		<path fill="#FFFFFF" d="M512.914,153.044l3.41,0.861c-0.715,2.801-2.001,4.937-3.858,6.407s-4.128,2.206-6.812,2.206
			c-2.777,0-5.036-0.565-6.776-1.696s-3.064-2.769-3.973-4.913s-1.362-4.447-1.362-6.908c0-2.684,0.513-5.024,1.538-7.022
			s2.484-3.516,4.377-4.553s3.976-1.556,6.249-1.556c2.578,0,4.746,0.656,6.504,1.969s2.982,3.158,3.674,5.537l-3.357,0.791
			c-0.598-1.875-1.465-3.24-2.602-4.096s-2.566-1.283-4.289-1.283c-1.98,0-3.636,0.475-4.966,1.424s-2.265,2.224-2.804,3.823
			s-0.809,3.249-0.809,4.948c0,2.191,0.319,4.104,0.958,5.739s1.632,2.856,2.979,3.665s2.807,1.213,4.377,1.213
			c1.91,0,3.527-0.551,4.852-1.652S512.445,155.212,512.914,153.044z"/>
		<path fill="#FFFFFF" d="M518.336,159.434l1.23-0.164c0.141,0.697,0.382,1.2,0.721,1.507c0.34,0.308,0.754,0.461,1.241,0.461
			c0.579,0,1.067-0.201,1.466-0.602c0.399-0.401,0.599-0.898,0.599-1.49c0-0.565-0.185-1.031-0.554-1.398s-0.838-0.55-1.408-0.55
			c-0.232,0-0.521,0.045-0.868,0.137l0.137-1.08c0.082,0.009,0.147,0.014,0.198,0.014c0.523,0,0.996-0.137,1.415-0.41
			s0.629-0.695,0.629-1.265c0-0.451-0.153-0.825-0.458-1.121s-0.699-0.444-1.183-0.444c-0.479,0-0.878,0.15-1.196,0.451
			s-0.523,0.752-0.615,1.354l-1.23-0.219c0.15-0.825,0.492-1.464,1.025-1.917s1.196-0.68,1.989-0.68c0.547,0,1.05,0.117,1.511,0.352
			s0.813,0.555,1.057,0.96c0.243,0.406,0.365,0.836,0.365,1.292c0,0.433-0.116,0.827-0.349,1.183s-0.577,0.638-1.032,0.848
			c0.592,0.137,1.053,0.42,1.381,0.851s0.492,0.97,0.492,1.617c0,0.875-0.318,1.617-0.957,2.225s-1.445,0.913-2.42,0.913
			c-0.879,0-1.609-0.262-2.191-0.786C518.75,160.947,518.418,160.268,518.336,159.434z"/>
	</g>
</g>
<g id="Layer_6">
	<g>
		<path fill="none" stroke="#FFFFFF" stroke-width="5" stroke-miterlimit="10" d="M353.041,35.167l0.375,89.333
			c0.046,11,4.671,27.743,10.278,37.207l50.111,84.586C419.413,255.757,415,263.5,404,263.5H240c-11,0-15.413-7.743-9.806-17.207
			l50.112-84.586c5.606-9.464,10.231-26.207,10.278-37.207l0.375-89.332"/>
	</g>
</g>
<g id="Layer_4">
	<line fill="none" stroke="#000000" stroke-width="5" stroke-miterlimit="10" x1="292" y1="37.5" x2="291" y2="37.5"/>
	<line fill="none" stroke="#000000" stroke-width="5" stroke-miterlimit="10" x1="294" y1="37.5" x2="294" y2="37.5"/>
	<line fill="none" stroke="#000000" stroke-width="5" stroke-miterlimit="10" x1="294" y1="37.5" x2="294" y2="37.5"/>
	<path fill="none" stroke="#FFFFFF" stroke-width="5" stroke-miterlimit="10" d="M291,37.5h-3.75c-3.176,0-5.75-2.574-5.75-5.75
		v-0.5c0-3.176,2.574-5.75,5.75-5.75h70.5c3.176,0,5.75,2.574,5.75,5.75v0.5c0,3.176-2.574,5.75-5.75,5.75H312"/>
</g>
<g id="Layer_9">
	<g>
		<path fill="#F6A821" d="M353.266,164.453l42.586,72.313C401.433,246.245,397,254,386,254H259c-11,0-15.433-7.755-9.851-17.234
			l42.611-72.358"/>
	</g>
</g>
<g id="Layer_10">
	<line fill="none" stroke="#000000" stroke-width="2" stroke-miterlimit="10" x1="8" y1="276" x2="634" y2="276"/>
</g>
<g id="Layer_11">
	<g>
		<rect x="8" y="306.332" fill="none" width="626" height="72.666"/>
		<path fill="#FFFFFF" d="M157.453,315.543l2.742-0.352c2.577,0.469,3.867,0.938,3.867,1.406c0.608,0.281,1.171,0.891,1.688,1.828
			c1.218,0.938,2.625,3.445,4.219,7.523l2.18,4.008c0.844,3.048,1.477,4.57,1.898,4.57c0.563,0,1.5-1.5,2.813-4.5
			c1.593-3.28,3.89-7.288,6.891-12.023c0.89-0.327,1.336-0.679,1.336-1.055c0.281-0.656,0.656-1.078,1.125-1.266l0.914,0.07
			c0.703-0.234,1.429-0.397,2.18-0.492c3.187,0.422,4.781,0.914,4.781,1.477v0.07l0.141,16.453l-0.141,4.57
			c0.234,1.923,0.633,6.867,1.195,14.836l-0.141,0.773c0.375,0.235,0.96,0.352,1.758,0.352c0.984,0.141,1.477,0.587,1.477,1.336
			v0.422c0,3.094-0.188,4.641-0.563,4.641h-0.141c-0.75-0.376-1.524-0.563-2.32-0.563h-4.148c-4.313,0-6.469-0.445-6.469-1.336
			l0.211-1.758v-0.281c0-0.187-0.165-0.516-0.492-0.984v-0.422c0-0.234,0.773-0.492,2.32-0.773l0.422-0.492l-0.211-0.422v-1.055
			c0-0.703,0.234-1.852,0.703-3.445l0.281-0.352c-0.329-0.375-0.492-2.296-0.492-5.766v-4.289l0.07-2.109
			c-0.188-0.516-0.281-1.195-0.281-2.039v-1.055c0-1.03,0.141-2.461,0.422-4.289c0-0.563,0.234-1.312,0.703-2.25l0.07-0.422
			c-0.329-1.593-0.492-2.742-0.492-3.445h-0.211c-0.798,0.798-2.063,2.556-3.797,5.273c-1.969,3.703-3.751,6.656-5.344,8.859
			l-2.813,4.008c-0.281,0.422-0.68,0.633-1.195,0.633l-0.844-0.352c-0.469,0.095-0.821,0.211-1.055,0.352
			c-0.563,0-0.891-0.538-0.984-1.617c-0.517-1.078-1.243-2.155-2.18-3.234c-0.75-0.89-2.18-3.562-4.289-8.016l-0.773-1.406
			l-0.914-1.617l0.07-0.07h0.422c0.234,0,0.422,0.306,0.563,0.914l0.07,0.141h0.211v-0.281c0-1.406-0.657-2.672-1.969-3.797h-0.211
			v0.352h-0.563v0.422l-0.07,0.703v0.703c0.749,10.313,1.125,19.172,1.125,26.578c-0.095,0.235-0.258,0.352-0.492,0.352
			c-0.188,0-0.281-0.257-0.281-0.773l-0.141-0.07h-0.141l-0.211,1.477c0.608,0.328,0.914,0.728,0.914,1.195l-0.141,0.844
			c-0.75,0-1.125-0.164-1.125-0.492h-0.211l-0.211,0.352v0.352c0,0.188,0.937,0.492,2.813,0.914h0.281
			c0.327,0,0.679-0.07,1.055-0.211c1.921,0.376,2.883,0.728,2.883,1.055v0.281l-0.422,0.07c-0.329,0-0.821-0.257-1.477-0.773h-0.352
			c-1.125,0.141-1.688,0.328-1.688,0.563c0.046,0.188,0.211,0.281,0.492,0.281h0.984c1.406,0.141,2.109,0.398,2.109,0.773
			l0.141,0.703v0.422c0,0.609-0.492,0.96-1.477,1.055c-0.703-0.327-1.431-0.492-2.18-0.492v0.07c0,0.141,0.234,0.211,0.703,0.211
			c0.608,0.141,0.914,0.281,0.914,0.422l-0.773,0.07c-1.406,0-4.219-0.258-8.438-0.773l-1.758,0.492
			c-0.844-0.187-1.266-0.538-1.266-1.055v-0.422c-0.563,0-0.938-0.586-1.125-1.758l-0.07-0.141v-0.352
			c0.515-0.938,1.452-1.406,2.813-1.406c1.171-0.281,1.758-0.492,1.758-0.633v-0.07l-1.195-32.555l0.141-3.023l-0.281-1.125
			C155.766,316.035,156.328,315.543,157.453,315.543z M153.727,355.27l-0.281,0.211v0.352c0,0.328,0.281,0.728,0.844,1.195h0.141
			c0.141,0,0.234-0.164,0.281-0.492c-0.047-0.844-0.188-1.266-0.422-1.266H153.727z M154.711,358.012h-0.281v0.211l0.141,0.211
			l0.141-0.141h0.07L154.711,358.012z M157.102,317.441h-0.211v0.211l0.141,0.141h0.07V317.441z M157.242,318.988l-0.07,0.07v0.07
			c0.187,2.156,0.397,3.234,0.633,3.234c0.187-0.327,0.281-0.749,0.281-1.266v-0.563
			C158.086,319.551,157.805,319.035,157.242,318.988z M157.945,328.691h-0.281v1.758l0.211,0.141h0.07l0.141-1.125v-0.211
			L157.945,328.691z M158.297,352.387h-0.141v0.352h0.211v-0.211L158.297,352.387z M158.297,344.512l0.07,0.07
			c0.422,0,0.633-0.703,0.633-2.109v-2.25l-0.07-0.422C158.694,339.801,158.483,341.372,158.297,344.512z M158.367,349.645v1.125
			l0.281,0.141h0.141l0.211-1.547l-0.07-0.492h-0.141C158.601,348.871,158.46,349.129,158.367,349.645z M158.789,337.41h-0.141
			v0.633v0.07c0,0.703,0.093,1.055,0.281,1.055l0.211-0.703C159.046,337.762,158.93,337.41,158.789,337.41z M159,318.145h-0.07
			v0.422c0.327,1.734,0.656,2.602,0.984,2.602h0.211v-0.281l-0.492-1.195C159.633,318.988,159.422,318.473,159,318.145z
			 M159.422,358.434L159,358.645c0.327,0.188,0.726,0.281,1.195,0.281h0.211l0.703-0.141v-0.281L159.422,358.434z M159.914,322.645
			h-0.352l-0.07,0.422v2.461c0,0.844,0.116,1.266,0.352,1.266c0.234,0,0.352-0.608,0.352-1.828
			C160.195,323.98,160.101,323.207,159.914,322.645z M160.828,317.371l-0.422,0.07v0.211c0,0.095,0.187,0.188,0.563,0.281
			c0.281-0.094,0.422-0.187,0.422-0.281v-0.141l-0.211-0.141H160.828z M160.969,333.262c0.093,2.485,0.257,3.727,0.492,3.727h0.141
			v-0.914c0-1.452-0.047-2.929-0.141-4.43h-0.07C161.203,331.645,161.062,332.184,160.969,333.262z M161.109,339.309v0.281
			l0.07,0.914h0.211v-0.492C161.391,339.544,161.296,339.309,161.109,339.309z M161.25,341.91c-0.095,0.281-0.141,0.587-0.141,0.914
			v3.938l0.07,3.727l0.07,0.141h0.141c0.468,0,0.773-0.327,0.914-0.984v-0.422c-0.188,0-0.329-0.257-0.422-0.773l0.07-1.266v-0.07
			c0-1.125-0.118-1.969-0.352-2.531l0.211-0.984C161.765,342.567,161.577,342.005,161.25,341.91z M161.883,352.809l-0.211,0.141
			l0.211,0.211h0.281l0.141-0.211l-0.141-0.141H161.883z M162.164,358.785h-0.492v0.141l0.844,0.211h1.125v-0.211L162.164,358.785z
			 M162.445,319.832c0.563,1.031,1.477,2.25,2.742,3.656l2.602,5.203H168c0-0.797-0.914-3.164-2.742-7.102
			c0-0.327-0.469-0.914-1.406-1.758l-0.141-0.422h-0.422C162.727,319.457,162.445,319.598,162.445,319.832z M163.219,317.934v0.07
			h0.773l0.07-0.07v-0.141l-0.07-0.141C163.523,317.652,163.265,317.747,163.219,317.934z M175.594,336.145h-0.211
			c-0.281,0.422-0.422,0.75-0.422,0.984v0.141h0.211c0.234,0,0.375-0.305,0.422-0.914V336.145z M178.969,330.168l0.141,0.141
			c0.375-0.234,0.867-1.055,1.477-2.461c0.422-0.422,0.796-1.241,1.125-2.461v-0.141l-0.281-0.141
			C180.772,325.105,179.953,326.793,178.969,330.168z M185.578,319.832h0.141h0.07c0.281-0.327,0.422-0.608,0.422-0.844v-0.141
			h-0.07C185.765,319.083,185.578,319.41,185.578,319.832z M186.352,356.043l-0.211,0.281v0.281l0.141,0.141l0.984-0.211v-0.211
			c-0.047-0.187-0.211-0.281-0.492-0.281H186.352z M186.773,358.082l-0.492,0.141v0.211l0.211,0.07h0.773v-0.07
			C187.171,358.199,187.007,358.082,186.773,358.082z M186.422,318.355l0.07,0.07c0.141,0,0.468-0.327,0.984-0.984v-0.422h-0.211
			C186.89,317.255,186.608,317.699,186.422,318.355z M188.742,352.105h-0.211l-0.07,0.422v0.141h0.211l0.07-0.211V352.105z
			 M190.148,330.73h-0.141v0.281l0.141,0.422h0.141v-0.492L190.148,330.73z M190.148,328.762v0.211l0.141,0.211
			c0.187-0.046,0.281-0.211,0.281-0.492v-0.422h-0.141C190.242,328.316,190.148,328.48,190.148,328.762z M190.922,347.184h-0.281
			c-0.329,0.844-0.492,1.594-0.492,2.25c0.141,0.563,0.304,0.844,0.492,0.844h0.141l0.141-2.953V347.184z M190.43,327.496h0.141
			c0.141-0.094,0.211-0.305,0.211-0.633C190.546,326.958,190.43,327.169,190.43,327.496z M191.063,351.402h-0.422v0.281h0.211
			l0.211-0.211V351.402z M191.133,343.809h-0.211l-0.07,0.211l0.281,0.211l0.141-0.211v-0.07L191.133,343.809z M191.555,352.879
			l-0.281,0.281l0.141,0.211h0.422v-0.211L191.555,352.879z M192.469,330.168c0.093,3.048,0.304,4.641,0.633,4.781l0.141-0.141
			v-2.25c0-1.781-0.07-3.117-0.211-4.008h-0.211C192.585,328.551,192.469,329.09,192.469,330.168z M193.242,348.309
			c-0.281,0.281-0.422,0.82-0.422,1.617v1.055l0.281,0.422h0.422c0.141,0,0.234-0.234,0.281-0.703
			C193.617,349.106,193.429,348.309,193.242,348.309z M193.523,352.105h-0.633v0.141l0.352,0.422h0.141l0.352-0.281v-0.141
			L193.523,352.105z"/>
		<path fill="#FFFFFF" d="M202.242,323.207h0.211c0.375,0.328,0.844,0.492,1.406,0.492l0.914-0.422c6.374,0,9.563,0.188,9.563,0.563
			l0.07,0.492v1.195c0.422,0.938,0.633,1.828,0.633,2.672v1.125c-0.563,7.641-0.938,13.828-1.125,18.563
			c-0.095,0.281-0.188,0.773-0.281,1.477c0.046,0.188,0.257,0.281,0.633,0.281h0.211c2.531,0,3.797,0.306,3.797,0.914l-0.07,0.141
			v0.422c0.563,1.125,0.844,2.907,0.844,5.344l0.281,2.813l-0.211,0.141l-3.094,0.141h-7.031c-5.25,0-7.875-0.422-7.875-1.266
			c0-0.516-0.141-1.03-0.422-1.547c0.141-0.327,0.375-0.586,0.703-0.773h0.211c0.187,0.188,0.397,0.281,0.633,0.281h0.141
			c1.359,0,2.976-0.116,4.852-0.352v-0.141c-4.032-0.281-6.047-0.608-6.047-0.984l-0.07-0.563v-0.773l-0.141-1.828
			c0-0.468,1.758-0.703,5.273-0.703c0.468,0,0.703-1.055,0.703-3.164l0.844-18.492h-0.141c-1.313,0-1.969-0.094-1.969-0.281
			c0-0.046,0.07-0.116,0.211-0.211c-2.813,0-4.219-0.327-4.219-0.984c-0.188-0.046-0.281-0.234-0.281-0.563l0.352-0.844
			c0-0.187-0.141-0.445-0.422-0.773c0.375-0.375,0.633-1.125,0.773-2.25L202.242,323.207z M203.086,353.23l-0.492,0.141v0.07
			c0.375,0.376,1.828,0.587,4.359,0.633h0.492c0.375,0,0.608-0.116,0.703-0.352v-0.141
			C206.18,353.348,204.492,353.23,203.086,353.23z M203.367,324.613v0.281h0.352c1.218,0,1.828-0.094,1.828-0.281l-0.141-0.281
			h-0.211C203.976,324.332,203.367,324.427,203.367,324.613z M204.914,325.598h-1.266v0.211c0,0.188,0.327,0.281,0.984,0.281h0.773
			h0.211h2.32c0.703,0,1.055-0.116,1.055-0.352v-0.07C208.992,325.434,207.632,325.411,204.914,325.598z M209.555,309.777
			l2.391-0.352c1.64,0,2.929,0.844,3.867,2.531l0.492,2.25c-0.095,0.891-0.61,2.063-1.547,3.516
			c-0.61,0.609-1.547,0.914-2.813,0.914c-2.953,0-4.781-0.445-5.484-1.336c-0.703-0.938-1.032-2.25-0.984-3.938
			c-0.188,0-0.281-0.046-0.281-0.141v-0.141C206.602,310.879,208.054,309.777,209.555,309.777z M208.148,311.535v0.07
			c1.593-0.187,2.391-0.397,2.391-0.633l-0.352-0.141C208.827,311.067,208.148,311.301,208.148,311.535z M208.711,336.285
			l-0.211,9.07c0.046,0.328,0.116,0.492,0.211,0.492c0.141,0,0.234-0.211,0.281-0.633l-0.07-1.055
			c0.234-0.234,0.492-1.171,0.773-2.813v-0.422l-0.141-0.984c0.281-0.234,0.422-0.397,0.422-0.492
			c-0.188-0.516-0.281-1.03-0.281-1.547v-0.141c0.187,0,0.422-2.625,0.703-7.875c-0.141-0.375-0.281-0.563-0.422-0.563
			C209.273,329.324,208.852,331.645,208.711,336.285z M210.891,355.902l-0.914,0.07h-0.984v0.281l0.984,0.07l2.039-0.141v-0.211
			h-0.281L210.891,355.902z M209.344,313.574h0.07l0.422,0.07h0.141c0.515,0,0.844-0.187,0.984-0.563l-0.07-0.141h-0.844
			C209.671,312.941,209.437,313.152,209.344,313.574z M209.695,354.074l0.281,0.352c0.422,0,0.633-0.234,0.633-0.703h-0.352
			C209.977,353.723,209.789,353.84,209.695,354.074z M210.609,349.223l-0.211,0.281v0.352h0.211l0.281-0.211v-0.211l-0.211-0.211
			H210.609z M210.469,348.168v0.492h0.141c0.234-0.094,0.352-0.375,0.352-0.844v-0.492h-0.211
			C210.655,347.324,210.562,347.605,210.469,348.168z M211.172,325.668l-0.633-0.07v0.141c0.327,0,0.726,0.235,1.195,0.703h0.141
			c0.093,0,0.141-0.07,0.141-0.211h0.141c0.187,0,0.304,0.211,0.352,0.633h0.141l0.984-0.703v-0.422l-1.477-0.07H211.172z
			 M210.891,329.605l0.352,1.055l-0.492,1.266c0.187,0.422,0.352,0.633,0.492,0.633h0.07l0.141-0.422v-0.422
			c0-1.688,0.257-2.531,0.773-2.531l0.211-0.281v-0.281l-0.211-0.211h-0.422C211.195,328.41,210.891,328.809,210.891,329.605z
			 M211.805,341.559h-0.352c-0.376,1.734-0.563,3.023-0.563,3.867h0.07c0.234,0,0.538-0.96,0.914-2.883v-0.492L211.805,341.559z
			 M211.172,316.527l-0.211,0.211v0.141h1.266l0.211-0.141l-0.211-0.211H211.172z M212.156,330.098l-0.281,0.07v0.422
			c0,0.281,0.116,0.492,0.352,0.633h0.211l0.211-0.281v-0.352C212.554,330.355,212.39,330.192,212.156,330.098z M212.719,315.262
			v0.211H213c0.327,0,0.585-0.164,0.773-0.492v-0.211h-0.141C213.304,314.77,213,314.935,212.719,315.262z M212.93,324.121
			l-0.211,0.211l0.281,0.211h0.141v-0.211L212.93,324.121z M214.406,312.941l-0.211,0.352v0.281h0.07l0.211-0.281v-0.352H214.406z
			 M216.516,353.863l-0.844,0.211c0.093,0.563,0.515,0.844,1.266,0.844h0.211v-0.211l-0.141-0.211c0-0.046,0.187-0.187,0.563-0.422
			v-0.352c0-0.327-0.095-0.516-0.281-0.563h-0.281C216.867,353.207,216.702,353.441,216.516,353.863z M216.234,350.91l-0.211,0.07
			c0.281,0.235,0.796,0.376,1.547,0.422v-0.211c0-0.187-0.306-0.281-0.914-0.281H216.234z M216.305,355.48l-0.211,0.281v0.141h0.141
			l0.211-0.281v-0.141H216.305z M218.063,358.293l-0.281,0.211v0.211h0.422l0.07-0.211l-0.07-0.211H218.063z"/>
		<path fill="#FFFFFF" d="M228.258,321.098c5.766,0,8.648,0.235,8.648,0.703c0,0.235-1.102,0.352-3.305,0.352l-0.141,0.211
			c0,0.095,1.007,0.165,3.023,0.211l1.055,0.773l-0.844,1.547l5.273,8.93l0.281,0.141c0.515-0.375,1.733-1.969,3.656-4.781
			c0.703-0.656,1.101-1.171,1.195-1.547c0.375,0,0.96-0.608,1.758-1.828c0-0.938,0.352-1.733,1.055-2.391l0.211,0.211
			c0,0.328-0.188,0.75-0.563,1.266v0.07h0.141c0.937-0.938,1.406-1.593,1.406-1.969v-0.492l-0.07-0.07
			c0-0.422,0.538-0.679,1.617-0.773h1.898c6.562,0.281,9.844,0.798,9.844,1.547v1.336l-0.281,0.352h-1.758l1.969,0.703l0.07,0.352
			v0.844l-0.281,0.211h-0.492c-1.828,0.047-2.742,0.188-2.742,0.422v0.07c2.296,0.047,3.445,0.188,3.445,0.422v0.141l-0.563,0.492
			l0.633,0.352v0.07l-0.211,0.281c-2.204-0.468-5.672-0.703-10.406-0.703c-2.016,2.156-3.938,4.43-5.766,6.82
			c-2.063,2.156-3.094,3.375-3.094,3.656c0.327,0.938,1.289,2.672,2.883,5.203c0.327,0.891,1.547,3.07,3.656,6.539
			c0,0.563,1.171,1.242,3.516,2.039c0.422,0.281,0.89,0.422,1.406,0.422l4.992-0.281l0.563,0.984v0.773
			c-0.188,0.235-0.281,0.446-0.281,0.633l0.07,0.563c0.093,0.328,0.116,0.763,0.07,1.301c-0.047,0.539-0.211,1.23-0.492,2.074
			c-0.329,0.234-0.633,0.352-0.914,0.352c-3-0.327-6.398-0.492-10.195-0.492h-0.914l-1.055,0.211h-0.563l-0.422-0.07v-0.07
			c0.375-0.516,0.563-0.96,0.563-1.336l-0.07-0.07h-0.211l-0.703,0.633h-0.211c-0.422-0.094-0.633-1.241-0.633-3.445
			c0-0.468,0.023-1.008,0.07-1.617c0.141-0.141,0.211-0.327,0.211-0.563c-1.406-3.983-2.837-6.844-4.289-8.578h-0.281
			c-0.657,0.188-1.454,1.406-2.391,3.656c-0.798,1.172-1.594,2.626-2.391,4.359c-0.422,0.984-0.868,1.477-1.336,1.477l0.773,1.406
			l0.703,0.844l-0.352,0.914l0.211,0.703v0.211l-1.406,1.688v0.07l0.07,0.633l-0.211,0.141l-2.25-0.281h-0.633
			c-0.235,0-2.134-0.047-5.695-0.141c-2.626-0.095-3.938,0.07-3.938,0.492l-0.141,0.141h-0.281l0.07-1.195l-0.352-0.844
			c0.327,0,0.515-1.008,0.563-3.023c0.187-0.234,0.422-0.397,0.703-0.492c0-0.563,0.211-0.844,0.633-0.844l5.625-0.914
			c0.327-0.234,0.608-0.633,0.844-1.195c0.281,0,0.703-0.586,1.266-1.758c0.703-0.844,1.078-1.266,1.125-1.266
			c0.422-0.094,0.633-0.187,0.633-0.281v-0.07h-0.633l-0.633-0.07v-0.211c0.422-0.327,0.633-0.727,0.633-1.195
			c1.312-1.922,2.203-3.117,2.672-3.586l3.234-4.57c0-0.141-0.657-1.148-1.969-3.023c-2.86-4.827-4.665-7.477-5.414-7.945
			c0-0.094-1.594-0.257-4.781-0.492c-2.157-0.187-3.234-0.422-3.234-0.703c0.187-2.25,0.281-3.913,0.281-4.992
			C224.203,321.355,225.727,321.098,228.258,321.098z M224.18,324.543l-0.211,0.352c0,0.328,0.703,0.563,2.109,0.703h0.211
			l1.055-0.211v-0.211C227.344,325.035,226.289,324.824,224.18,324.543z M223.969,356.395v0.141
			c0.141,0.328,0.397,0.492,0.773,0.492l2.18-0.281v-0.141c0-0.234-0.798-0.422-2.391-0.563
			C224.155,356.184,223.969,356.301,223.969,356.395z M227.484,322.012l-0.141,0.141v0.211h0.844v-0.07l-0.352-0.281H227.484z
			 M229.594,325.598l-0.563-0.141l-0.07,0.141l0.281,0.281h0.281L229.594,325.598z M231,352.457v0.211
			c0.375,0,0.633-0.164,0.773-0.492l-0.07-0.141C231.281,352.13,231.046,352.271,231,352.457z M233.32,328.41h-0.211v0.141
			l0.211,0.211h0.141v-0.211L233.32,328.41z M233.461,324.543l-0.281,0.352c0.093,0.141,0.281,0.211,0.563,0.211l0.141-0.211
			l-0.281-0.352H233.461z M233.883,329.184h-0.281v0.07c0,0.376,0.234,0.728,0.703,1.055h0.141l0.141-0.141
			C234.586,329.7,234.351,329.371,233.883,329.184z M234.938,358.152h-0.492v0.281h0.703v-0.141L234.938,358.152z M235.57,324.754
			h-0.422v0.211c0.281,0.422,0.563,0.633,0.844,0.633v-0.422L235.57,324.754z M235.57,351.473l-0.281,0.281v0.211h0.07l0.281-0.281
			v-0.211H235.57z M236.906,343.809l0.141,0.07h0.07c1.359-1.733,2.039-2.766,2.039-3.094h-0.07
			C238.102,341.629,237.374,342.638,236.906,343.809z M243.938,336.988h0.07c0.608-0.468,0.914-0.914,0.914-1.336
			C244.265,336.169,243.938,336.613,243.938,336.988z M249.281,329.676h0.141c0.281-0.187,0.445-0.375,0.492-0.563l-0.07-0.141
			C249.468,329.208,249.281,329.441,249.281,329.676z M249.563,354.496l-0.281,0.211c0.141,0.235,0.327,0.446,0.563,0.633h0.563
			v-0.07C250.406,354.754,250.125,354.496,249.563,354.496z M251.109,356.043h-0.352v0.211h0.352V356.043z M253.922,352.949
			l-2.18-0.773l-0.141,0.07v0.492c0,0.235,0.422,0.398,1.266,0.492h0.844L253.922,352.949z M252.445,356.184h2.32l0.844-0.141v-0.07
			l-0.492-0.141h-1.406C252.867,355.832,252.445,355.949,252.445,356.184z M253.219,325.668v0.281h0.07
			c0.375,0,0.726-0.234,1.055-0.703v-0.352h-0.281C253.875,324.941,253.593,325.2,253.219,325.668z M258,326.09l-0.914,0.07v0.141
			l1.055,0.07l1.547-0.07v-0.211H258z M258.844,324.332h-0.211v0.281l1.055,0.141h0.703v-0.211L258.844,324.332z M259.969,358.504
			h-0.844v0.352c0.563,0.188,1.101,0.281,1.617,0.281l0.07-0.07v-0.141C260.813,358.785,260.531,358.645,259.969,358.504z
			 M259.266,355.48v0.07h0.633l0.422-0.07v-0.141c0-0.141-0.095-0.211-0.281-0.211C259.522,355.27,259.266,355.387,259.266,355.48z"
			/>
		<path fill="#FFFFFF" d="M283.875,326.16l1.969,0.563h0.633c2.672,1.313,5.156,2.883,7.453,4.711
			c2.391,2.063,3.586,3.61,3.586,4.641h-0.141c-0.376-0.656-0.75-0.984-1.125-0.984h-0.07c-0.141,0-0.211,0.095-0.211,0.281
			c0.187,0.517,0.608,1.406,1.266,2.672h0.141c0.093,0,0.211-0.234,0.352-0.703h0.07c0.141,0.047,0.304,0.728,0.492,2.039
			l0.633,1.406l-0.141,0.914l0.211,2.531c-0.329,1.172-0.633,2.719-0.914,4.641c-0.188,0.891-2.368,4.219-6.539,9.984
			c-1.875,1.781-3.704,2.672-5.484,2.672c-1.642,0.187-3.493,0.281-5.555,0.281h-1.336c-0.798,0-2.883-0.68-6.258-2.039
			c-4.266-3.797-6.398-6.703-6.398-8.719c-0.61-1.266-1.125-2.437-1.547-3.516c0-0.608,0.633-2.625,1.898-6.047
			c0-2.155,0.515-3.656,1.547-4.5c2.203-4.734,4.992-7.805,8.367-9.211C279.727,326.699,282.093,326.16,283.875,326.16z
			 M266.086,346.902l-0.141,0.211c0.046,0.422,0.116,0.633,0.211,0.633l0.141-0.07v-0.352l-0.141-0.422H266.086z M267.844,350.207
			l-0.281,0.211v0.492c0.093,1.594,0.538,2.485,1.336,2.672l0.07-0.07v-0.07C268.64,351.286,268.266,350.207,267.844,350.207z
			 M268.266,339.309c0.234,0,0.445-0.164,0.633-0.492v-0.141C268.477,338.676,268.266,338.887,268.266,339.309z M269.672,336.918
			h0.07c0.187-0.046,0.281-0.234,0.281-0.563h-0.141C269.742,336.45,269.672,336.637,269.672,336.918z M270.094,345.355
			l-0.281,0.281v0.141h0.211l0.141-0.211v-0.211H270.094z M270.445,354.848l-0.281,0.141v0.141l0.563,0.563h0.281
			C271.008,355.364,270.82,355.083,270.445,354.848z M271.219,348.238v0.422c0.656,1.266,1.382,2.626,2.18,4.078
			c0,0.469,0.89,1.125,2.672,1.969c0.844,0.984,2.414,1.758,4.711,2.32l1.266,0.141c2.062-0.422,3.609-0.867,4.641-1.336
			l2.531-2.109c2.625-2.813,3.89-5.179,3.797-7.102v-0.633c-0.281-0.749-0.422-1.969-0.422-3.656c0-1.312,0.093-2.344,0.281-3.094
			c0-0.327-0.914-1.148-2.742-2.461c-1.313-1.874-2.672-3.023-4.078-3.445h-0.844c-5.484,0.235-8.227,0.68-8.227,1.336
			c-1.22,1.22-2.063,2.415-2.531,3.586c-1.501,1.594-2.25,2.648-2.25,3.164C271.781,343.341,271.453,345.613,271.219,348.238z
			 M271.922,357.309h-0.492v0.281c0.608,0.609,1.71,0.914,3.305,0.914h0.773C275.272,358.177,274.077,357.777,271.922,357.309z
			 M272.484,336.426v0.492h0.211c0.608-0.563,0.914-1.008,0.914-1.336v-0.07h-0.352
			C272.977,335.699,272.718,336.004,272.484,336.426z M273.398,331.223l-0.211,0.352v0.281c0.281,0,1.71-0.984,4.289-2.953
			l0.563-0.211l0.422,0.07c3.14-0.327,4.711-0.633,4.711-0.914v-0.07l-1.125-0.211C278.858,327.566,275.976,328.786,273.398,331.223
			z M273.961,332.77c0.422,0,0.819-0.281,1.195-0.844v-0.211C274.358,331.95,273.961,332.302,273.961,332.77z M274.242,334.738
			h-0.281v0.281h0.141l0.141-0.141V334.738z M275.227,359.207v0.07h0.914l0.141-0.141l-0.141-0.211H276
			C275.531,358.926,275.272,359.021,275.227,359.207z M276.703,358.223v0.211c0,0.281,0.656,0.422,1.969,0.422l0.07-0.07v-0.141
			C278.132,358.363,277.452,358.223,276.703,358.223z M278.742,330.309v0.352c3.656-0.422,5.484-0.703,5.484-0.844l-0.563-0.211
			h-0.07C281.344,329.605,279.727,329.841,278.742,330.309z M278.883,332.699v0.07l0.141,0.211h0.984l4.992-1.125v-0.141
			l-1.336-0.281C280.476,331.81,278.883,332.231,278.883,332.699z M283.523,359.91v0.141c0,0.141,0.352,0.257,1.055,0.352
			c0.796,0,1.195-0.117,1.195-0.352v-0.141c-0.047-0.188-0.211-0.376-0.492-0.563h-0.633
			C284.132,359.348,283.757,359.534,283.523,359.91z M284.719,327.637c0.234,0.657,0.749,0.984,1.547,0.984l0.703,0.07l0.141-0.07
			v-0.352c0-0.516-0.492-0.819-1.477-0.914C285.023,327.402,284.719,327.496,284.719,327.637z M284.859,330.66v0.07l0.703-0.563
			l-0.141-0.07C284.953,330.379,284.765,330.566,284.859,330.66z M286.055,329.957l-0.141,0.07c0.89,0.703,1.593,1.055,2.109,1.055
			l0.07-0.141v-0.07C287.343,330.263,286.663,329.957,286.055,329.957z M287.32,360.402h0.07c0.844-0.281,1.266-0.517,1.266-0.703
			l-0.141-0.141C287.858,359.793,287.461,360.074,287.32,360.402z M288.375,333.191c0.281,0.469,0.608,0.703,0.984,0.703l0.07-0.141
			v-0.141c0-0.422-0.188-0.633-0.563-0.633C288.539,333.027,288.375,333.098,288.375,333.191z M289.641,329.184l-0.211,0.211
			c0.515,0.657,1.03,0.984,1.547,0.984c0-0.516-0.399-0.914-1.195-1.195H289.641z M290.695,332.277v0.141
			c0.141,0.563,0.796,1.149,1.969,1.758h0.211l0.141-0.211v-0.07C292.78,333.567,292.007,333.027,290.695,332.277z M292.242,334.457
			h-0.281c0.281,0.609,0.96,1.125,2.039,1.547h0.281l0.211-0.211v-0.07C293.694,334.879,292.945,334.457,292.242,334.457z
			 M295.195,351.684v0.07c0.375,0,0.703-0.375,0.984-1.125v-0.141h-0.211C295.688,350.488,295.429,350.887,295.195,351.684z
			 M296.32,350.418h0.352l0.281,0.211c0.046-0.749-0.07-1.078-0.352-0.984h-0.141l-0.07-0.492L296.32,350.418z M296.883,346.551
			c0.046,1.406,0.164,2.156,0.352,2.25h0.141c0-0.516,0.211-1.078,0.633-1.688v-0.211l-0.773-1.055h-0.141
			C296.999,345.848,296.929,346.083,296.883,346.551z M298.008,341.559l-0.211,0.211v0.281l0.211,0.281l0.281-0.281v-0.281
			l-0.211-0.211H298.008z"/>
		<path fill="#FFFFFF" d="M303.633,306.895l1.055-0.281l2.953,0.773l4.57-0.211c1.171,0,1.758,0.352,1.758,1.055
			c-0.281,1.782-0.422,4.148-0.422,7.102v11.039l-0.07,10.617l0.07,2.813l-0.352,13.359c1.593,0.422,4.008,0.728,7.242,0.914
			l0.07,0.07v0.984c0,0.235,0.257,0.609,0.773,1.125c-0.517,1.125-1.102,2.789-1.758,4.992l-0.633,0.492h-0.211
			c-0.281-0.422-0.868-0.633-1.758-0.633l-11.531-1.547c-3.47,0-5.203-0.211-5.203-0.633c0.563-1.125,0.984-2.953,1.266-5.484h0.07
			v-0.07l0.703,0.07h0.703c0.234-0.141,0.914-0.327,2.039-0.563c0.468,0.235,0.819,0.352,1.055,0.352h0.844
			c0.468,0,0.703-0.468,0.703-1.406c0.093-1.125,0.327-6.258,0.703-15.398c-0.329-2.813-0.61-10.547-0.844-23.203
			c-0.188-0.327-0.422-0.492-0.703-0.492l-3.164,0.211c-0.563-0.046-0.844-0.234-0.844-0.563
			C302.905,308.723,303.211,306.895,303.633,306.895z M301.523,358.082l-0.211,0.352l0.211,0.07h0.352l0.211-0.07l-0.281-0.352
			H301.523z M302.367,354.707l-0.141,0.211v0.211l0.281,0.141l0.141-0.281l-0.07-0.281H302.367z M303.984,309.848l-0.352,0.352
			v0.492l0.281,0.281h1.406h0.492v-0.281l-1.266-0.563l-0.422-0.281H303.984z M304.336,308.23l-0.422,0.141v0.141
			c0,0.422,0.234,0.633,0.703,0.633h0.211c0.515,0,1.03-0.257,1.547-0.773v-0.141H304.336z M304.406,354.496l-0.141,0.211
			c0,0.376,0.164,0.563,0.492,0.563h0.07v-0.563l-0.211-0.211H304.406z M305.32,356.676l-0.211,0.352l0.141,0.211h1.055
			c0.749,0,1.125-0.07,1.125-0.211v-0.141c-0.517-0.141-1.172-0.211-1.969-0.211H305.32z M305.813,355.48v0.07l0.352,0.07h0.422
			l0.281-0.141v-0.211h-0.492h-0.07C305.976,355.27,305.813,355.34,305.813,355.48z M307.922,308.23l-0.141,0.211l0.563,0.141h0.703
			l0.281-0.211v-0.141H307.922z M308.625,349.926v0.281c0,0.328,0.093,0.492,0.281,0.492l0.281-0.422v-0.492
			c-0.095-0.563-0.188-0.844-0.281-0.844C308.718,348.941,308.625,349.27,308.625,349.926z M308.906,327.215v0.281l0.141,0.141
			l0.141-0.141v-0.352l-0.07-0.141c0-0.046,0.187-0.187,0.563-0.422v-0.211h-0.281C309.07,326.559,308.906,326.84,308.906,327.215z
			 M309.328,319.48l-0.211,0.211v0.141h0.352v-0.352H309.328z M309.469,315.543l-0.141,0.211v0.281l0.141,0.211h0.141l0.07-0.211
			v-0.281l-0.07-0.211H309.469z M309.891,336.145v0.211h0.141c0.234,0,0.352-0.96,0.352-2.883
			C310.288,333.473,310.125,334.363,309.891,336.145z M310.172,310.973v0.07l0.211,0.211h0.281c0.422-0.281,0.937-0.563,1.547-0.844
			c0.234-0.375,0.352-0.656,0.352-0.844l-0.141-0.141h-0.211c-0.422,0-0.844,0.258-1.266,0.773
			C310.429,310.34,310.172,310.598,310.172,310.973z M311.508,339.449l-0.141,0.141l-0.141,4.43v5.906l0.141,2.742l0.07,0.07h0.492
			c0.187,0,0.281-0.211,0.281-0.633C312.164,343.668,311.93,339.449,311.508,339.449z M312.422,324.332h-0.211v0.07l0.281,0.352
			h0.07v-0.211L312.422,324.332z M312.563,325.598l-0.281-0.211l-0.07,1.406v0.844h0.07c0.187,0,0.281-0.327,0.281-0.984V325.598z
			 M312.492,328.129h-0.281v0.563h0.07l0.211-0.141V328.129z M318.539,356.605l-4.008-0.141v0.07c0,0.281,0.796,0.446,2.391,0.492
			h1.828l0.492-0.141v-0.211L318.539,356.605z M316.289,358.434l0.281,0.07h1.406c0.422,0,0.656-0.07,0.703-0.211v-0.211
			l-0.422-0.07h-1.055C316.593,358.059,316.289,358.199,316.289,358.434z M318.258,354.496l-0.422,0.07v0.141
			c0.046,0.281,0.445,0.422,1.195,0.422l0.352-0.281v-0.281l-0.422-0.07H318.258z M318.328,359.77h-0.422v0.281l0.422,0.141h0.211
			l0.422-0.141v-0.281h-0.422H318.328z"/>
		<path fill="#FFFFFF" d="M341.531,326.16l1.969,0.563h0.633c2.672,1.313,5.156,2.883,7.453,4.711
			c2.391,2.063,3.586,3.61,3.586,4.641h-0.141c-0.376-0.656-0.75-0.984-1.125-0.984h-0.07c-0.141,0-0.211,0.095-0.211,0.281
			c0.187,0.517,0.608,1.406,1.266,2.672h0.141c0.094,0,0.211-0.234,0.352-0.703h0.07c0.141,0.047,0.305,0.728,0.492,2.039
			l0.633,1.406l-0.141,0.914l0.211,2.531c-0.328,1.172-0.633,2.719-0.914,4.641c-0.188,0.891-2.367,4.219-6.539,9.984
			c-1.875,1.781-3.703,2.672-5.484,2.672c-1.642,0.187-3.492,0.281-5.555,0.281h-1.336c-0.798,0-2.883-0.68-6.258-2.039
			c-4.266-3.797-6.398-6.703-6.398-8.719c-0.609-1.266-1.125-2.437-1.547-3.516c0-0.608,0.633-2.625,1.898-6.047
			c0-2.155,0.516-3.656,1.547-4.5c2.203-4.734,4.992-7.805,8.367-9.211C337.383,326.699,339.749,326.16,341.531,326.16z
			 M323.742,346.902l-0.141,0.211c0.046,0.422,0.116,0.633,0.211,0.633l0.141-0.07v-0.352l-0.141-0.422H323.742z M325.5,350.207
			l-0.281,0.211v0.492c0.094,1.594,0.538,2.485,1.336,2.672l0.07-0.07v-0.07C326.297,351.286,325.922,350.207,325.5,350.207z
			 M325.922,339.309c0.234,0,0.445-0.164,0.633-0.492v-0.141C326.133,338.676,325.922,338.887,325.922,339.309z M327.328,336.918
			h0.07c0.187-0.046,0.281-0.234,0.281-0.563h-0.141C327.398,336.45,327.328,336.637,327.328,336.918z M327.75,345.355l-0.281,0.281
			v0.141h0.211l0.141-0.211v-0.211H327.75z M328.102,354.848l-0.281,0.141v0.141l0.563,0.563h0.281
			C328.664,355.364,328.477,355.083,328.102,354.848z M328.875,348.238v0.422c0.656,1.266,1.382,2.626,2.18,4.078
			c0,0.469,0.89,1.125,2.672,1.969c0.844,0.984,2.414,1.758,4.711,2.32l1.266,0.141c2.063-0.422,3.609-0.867,4.641-1.336
			l2.531-2.109c2.625-2.813,3.891-5.179,3.797-7.102v-0.633c-0.281-0.749-0.422-1.969-0.422-3.656c0-1.312,0.094-2.344,0.281-3.094
			c0-0.327-0.914-1.148-2.742-2.461c-1.313-1.874-2.672-3.023-4.078-3.445h-0.844c-5.484,0.235-8.227,0.68-8.227,1.336
			c-1.22,1.22-2.063,2.415-2.531,3.586c-1.501,1.594-2.25,2.648-2.25,3.164C329.438,343.341,329.109,345.613,328.875,348.238z
			 M329.578,357.309h-0.492v0.281c0.608,0.609,1.711,0.914,3.305,0.914h0.773C332.929,358.177,331.733,357.777,329.578,357.309z
			 M330.141,336.426v0.492h0.211c0.608-0.563,0.914-1.008,0.914-1.336v-0.07h-0.352
			C330.633,335.699,330.375,336.004,330.141,336.426z M331.055,331.223l-0.211,0.352v0.281c0.281,0,1.711-0.984,4.289-2.953
			l0.563-0.211l0.422,0.07c3.14-0.327,4.711-0.633,4.711-0.914v-0.07l-1.125-0.211C336.515,327.566,333.632,328.786,331.055,331.223
			z M331.617,332.77c0.422,0,0.819-0.281,1.195-0.844v-0.211C332.015,331.95,331.617,332.302,331.617,332.77z M331.898,334.738
			h-0.281v0.281h0.141l0.141-0.141V334.738z M332.883,359.207v0.07h0.914l0.141-0.141l-0.141-0.211h-0.141
			C333.188,358.926,332.929,359.021,332.883,359.207z M334.359,358.223v0.211c0,0.281,0.656,0.422,1.969,0.422l0.07-0.07v-0.141
			C335.789,358.363,335.108,358.223,334.359,358.223z M336.398,330.309v0.352c3.656-0.422,5.484-0.703,5.484-0.844l-0.563-0.211
			h-0.07C339,329.605,337.383,329.841,336.398,330.309z M336.539,332.699v0.07l0.141,0.211h0.984l4.992-1.125v-0.141l-1.336-0.281
			C338.132,331.81,336.539,332.231,336.539,332.699z M341.18,359.91v0.141c0,0.141,0.352,0.257,1.055,0.352
			c0.797,0,1.195-0.117,1.195-0.352v-0.141c-0.047-0.188-0.211-0.376-0.492-0.563h-0.633
			C341.788,359.348,341.414,359.534,341.18,359.91z M342.375,327.637c0.234,0.657,0.749,0.984,1.547,0.984l0.703,0.07l0.141-0.07
			v-0.352c0-0.516-0.492-0.819-1.477-0.914C342.68,327.402,342.375,327.496,342.375,327.637z M342.516,330.66v0.07l0.703-0.563
			l-0.141-0.07C342.609,330.379,342.421,330.566,342.516,330.66z M343.711,329.957l-0.141,0.07c0.89,0.703,1.593,1.055,2.109,1.055
			l0.07-0.141v-0.07C345,330.263,344.319,329.957,343.711,329.957z M344.977,360.402h0.07c0.844-0.281,1.266-0.517,1.266-0.703
			l-0.141-0.141C345.515,359.793,345.117,360.074,344.977,360.402z M346.031,333.191c0.281,0.469,0.608,0.703,0.984,0.703
			l0.07-0.141v-0.141c0-0.422-0.188-0.633-0.563-0.633C346.195,333.027,346.031,333.098,346.031,333.191z M347.297,329.184
			l-0.211,0.211c0.516,0.657,1.03,0.984,1.547,0.984c0-0.516-0.398-0.914-1.195-1.195H347.297z M348.352,332.277v0.141
			c0.141,0.563,0.797,1.149,1.969,1.758h0.211l0.141-0.211v-0.07C350.437,333.567,349.663,333.027,348.352,332.277z
			 M349.898,334.457h-0.281c0.281,0.609,0.96,1.125,2.039,1.547h0.281l0.211-0.211v-0.07
			C351.351,334.879,350.602,334.457,349.898,334.457z M352.852,351.684v0.07c0.375,0,0.703-0.375,0.984-1.125v-0.141h-0.211
			C353.344,350.488,353.086,350.887,352.852,351.684z M353.977,350.418h0.352l0.281,0.211c0.046-0.749-0.07-1.078-0.352-0.984
			h-0.141l-0.07-0.492L353.977,350.418z M354.539,346.551c0.046,1.406,0.164,2.156,0.352,2.25h0.141
			c0-0.516,0.211-1.078,0.633-1.688v-0.211l-0.773-1.055h-0.141C354.655,345.848,354.585,346.083,354.539,346.551z M355.664,341.559
			l-0.211,0.211v0.281l0.211,0.281l0.281-0.281v-0.281l-0.211-0.211H355.664z"/>
		<path fill="#FFFFFF" d="M373.102,322.645h2.32c1.125,0,2.953,0.492,5.484,1.477c0.938,0,2.414,0.587,4.43,1.758h0.352
			c0.516,0,1.641-0.938,3.375-2.813c0.375,0,1.078,0.657,2.109,1.969c0.468,0.188,1.008,0.633,1.617,1.336v0.211
			c-2.626,2.907-3.938,4.524-3.938,4.852c-1.266,4.266-2.109,6.634-2.531,7.102c-0.891,0.938-2.156,1.758-3.797,2.461
			c-2.063,2.063-3.914,3.094-5.555,3.094l-2.109,0.07l-4.57-0.422h-0.914c-0.376,0-0.868,1.547-1.477,4.641l0.563,0.141h0.211
			c0.749,0,1.57-0.281,2.461-0.844l1.617-0.141h2.813c4.5,0,8.202,0.422,11.109,1.266c0.422,0.281,1.452,0.798,3.094,1.547
			l2.391,1.758c1.874,1.594,3.047,3.023,3.516,4.289c1.688,3.28,2.531,6.07,2.531,8.367c0,1.733-1.36,3.891-4.078,6.469
			l-4.289,3.094c-2.25,1.406-4.922,2.109-8.016,2.109l-1.969,0.281c-8.344,0-13.992-1.688-16.945-5.063
			c-2.156-1.313-3.234-3.023-3.234-5.133c-0.798-1.501-1.195-3.47-1.195-5.906l-0.281-1.547l0.281-0.914h0.211
			c0.234,1.079,0.422,1.617,0.563,1.617h0.211c0.656-2.953,1.171-4.922,1.547-5.906v-0.141h-0.07
			c-1.36,2.204-2.039,3.47-2.039,3.797h-0.141c-0.188,0-0.281-0.257-0.281-0.773c0.046-0.938,0.89-2.555,2.531-4.852
			c1.828-1.733,2.742-2.718,2.742-2.953c0.468-3.891,0.819-6.304,1.055-7.242c-1.22-2.344-1.828-4.265-1.828-5.766l-0.07-1.195
			c0-0.797,0.305-2.25,0.914-4.359c0.516-0.516,1.5-1.781,2.953-3.797C369.258,323.957,371.367,322.645,373.102,322.645z
			 M359.25,362.301l-0.141,0.07v0.492l0.281,0.211h0.07v-0.773H359.25z M359.602,363.566h-0.141v0.211
			c0.046,0.327,0.141,0.492,0.281,0.492l0.211-0.141v-0.211L359.602,363.566z M361.641,357.449l0.07,0.352h0.141
			c0.234,0,0.516-0.703,0.844-2.109h-0.141C361.945,356.16,361.641,356.746,361.641,357.449z M362.273,353.441v0.07l0.211,0.211
			c1.125-0.281,1.688-0.656,1.688-1.125v-0.492l-0.141-0.211C363.422,352.13,362.836,352.645,362.273,353.441z M362.555,368.066
			l-0.281,0.352c0.141,0.327,0.281,0.492,0.422,0.492l0.281-0.352C362.977,368.371,362.836,368.207,362.555,368.066z
			 M363.258,362.512l-0.141,0.211l-0.141,1.406c0.046,0.984,0.187,1.477,0.422,1.477h0.141c0.141-0.095,0.211-0.258,0.211-0.492
			v-0.914c0-1.125-0.117-1.688-0.352-1.688H363.258z M363.539,355.691v0.281h0.211l0.422-0.492v-0.211
			C363.891,355.27,363.68,355.41,363.539,355.691z M363.609,334.035c0,1.031,0.234,1.805,0.703,2.32h0.281
			c0.141,0,0.211-0.07,0.211-0.211c-0.188-1.969-0.422-2.953-0.703-2.953C363.866,333.191,363.703,333.473,363.609,334.035z
			 M375.563,353.441v0.211l-1.125,0.211l-1.477-0.211l-5.203,0.07c-2.156,1.969-3.234,3.352-3.234,4.148l-0.422,0.492v0.141
			c0.327,4.687,0.797,7.594,1.406,8.719c0.046,0.234,0.89,0.938,2.531,2.109c0,0.327,1.406,0.89,4.219,1.688
			c4.124,0.608,7.547,0.914,10.266,0.914c3.516-0.657,5.906-1.642,7.172-2.953c2.296-2.345,3.445-4.266,3.445-5.766v-0.352
			c0-0.798-0.914-2.367-2.742-4.711c-0.235-0.656-0.938-1.289-2.109-1.898c-2.063-1.359-4.148-2.203-6.258-2.531l-4.359-0.07v-0.422
			v-0.07h-0.844C376.171,353.16,375.749,353.255,375.563,353.441z M364.453,369.895l-0.211,0.281v0.141h0.633v-0.422H364.453z
			 M364.523,331.926h0.211c0.141-0.094,0.516-0.563,1.125-1.406l-0.211-0.141C365.367,330.379,364.991,330.896,364.523,331.926z
			 M364.523,354.988v0.211h0.211l0.844-0.281v-0.281h-0.141C364.828,354.684,364.523,354.802,364.523,354.988z M364.875,340.082
			h-0.281v0.211c0.468,0.75,1.171,1.266,2.109,1.547v-0.141C366.281,340.621,365.672,340.082,364.875,340.082z M365.156,352.105
			l0.352,0.211H366l0.281-0.352v-0.422l-0.211-0.281C365.602,351.262,365.297,351.543,365.156,352.105z M365.438,369.402h-0.141
			v0.211l0.281,0.281H366v-0.211C365.953,369.496,365.765,369.402,365.438,369.402z M366.563,343.035l-0.352,0.281v0.563
			c0,0.376,0.187,0.609,0.563,0.703l0.281-0.211v-1.125l-0.281-0.211H366.563z M367.195,334.879l-0.141,0.211
			c0,0.798,0.257,1.523,0.773,2.18h0.07v-0.281C367.804,335.77,367.57,335.066,367.195,334.879z M367.758,340.574l-0.211,0.211
			c0.187,0.469,0.492,0.703,0.914,0.703l0.352-0.422C368.813,340.88,368.461,340.715,367.758,340.574z M368.039,333.121v0.352
			c0.749,3.563,1.289,5.344,1.617,5.344c1.078,1.031,2.015,1.547,2.813,1.547c3.562,0,6.117-0.797,7.664-2.391
			c1.171-1.078,2.015-2.203,2.531-3.375c0.375-0.656,0.563-1.148,0.563-1.477v-1.125c0-0.749-0.563-1.874-1.688-3.375
			c-2.531-1.125-4.289-1.688-5.273-1.688c-2.204,0-4.336,0.961-6.398,2.883C368.647,331.317,368.039,332.418,368.039,333.121z
			 M368.25,350.91c0,0.095,0.749,0.188,2.25,0.281c0.608-0.046,0.914-0.141,0.914-0.281c-0.235-0.375-0.517-0.633-0.844-0.773
			h-0.773C368.766,350.277,368.25,350.535,368.25,350.91z M368.813,328.762l0.281,0.07c0.281,0,0.656-0.305,1.125-0.914v-0.281
			h-0.422C369.14,328.013,368.813,328.387,368.813,328.762z M369.305,341.418l-0.07,0.07v0.563l0.281,0.281h1.195v-0.281
			C369.913,341.629,369.445,341.418,369.305,341.418z M370.219,352.316l-0.352,0.281l0.211,0.211h0.492v-0.352l-0.211-0.141H370.219
			z M370.5,324.402v0.07c1.641-0.422,2.461-0.773,2.461-1.055v-0.07h-0.211C372.093,323.348,371.344,323.699,370.5,324.402z
			 M382.242,373.199c-5.766-0.376-9.024-0.703-9.773-0.984l-1.898-0.141v0.141c0.608,0.468,1.406,0.773,2.391,0.914l2.109-0.07
			l0.492,0.352l0.07-0.07h0.141c1.266,0.234,2.602,0.352,4.008,0.352h1.547c2.063,0,3.491-0.258,4.289-0.773
			c1.969-0.703,2.953-1.102,2.953-1.195v-0.07C385.663,372.261,383.554,372.777,382.242,373.199z M371.695,342.191l-0.281,0.211
			c0,0.422,0.773,0.633,2.32,0.633h2.039c0.281,0,0.445-0.094,0.492-0.281c-0.984-0.375-2.274-0.563-3.867-0.563H371.695z
			 M372.258,325.879v0.281h0.141l2.109-0.773v-0.352h-0.633C372.796,325.271,372.258,325.552,372.258,325.879z M373.102,374.957
			l-0.352-0.281l-0.07,0.07v0.07l0.281,0.141H373.102z M374.156,375.168h-0.281v0.07c0.046,0.187,0.305,0.281,0.773,0.281h0.773
			C375.422,375.284,375,375.168,374.156,375.168z M376.195,340.855l-0.281,0.281c0,0.095,0.397,0.188,1.195,0.281l0.563-0.07
			c0-0.187-0.306-0.352-0.914-0.492H376.195z M377.461,348.66l-1.547,0.281v0.07c0,0.422,2.414,0.703,7.242,0.844l1.477,0.492h0.141
			c0.141,0,0.327-0.07,0.563-0.211l2.039,0.07v-0.211c-0.235-0.375-0.773-0.563-1.617-0.563h-0.703c-0.235,0-0.446,0.07-0.633,0.211
			l-1.688-0.703c-0.984-0.187-2.508-0.281-4.57-0.281H377.461z M377.672,340.363v0.211l0.422,0.281h0.281
			c0.234,0,0.703-0.352,1.406-1.055v-0.141h-0.633C378.586,339.66,378.094,339.896,377.672,340.363z M379.852,375.168l-0.141,0.211
			v0.141c0.046,0.187,0.211,0.281,0.492,0.281h0.422l0.914-0.211v-0.211l-1.266-0.211H379.852z M380.133,352.457l-0.352,0.352
			c0,0.188,1.171,0.352,3.516,0.492c1.922,0.563,3.586,1.336,4.992,2.32l0.984,0.07l0.281-0.281v-0.07
			c-0.328-0.656-1.828-1.382-4.5-2.18C382.569,352.692,380.93,352.457,380.133,352.457z M380.414,340.082l-0.281,0.281v0.281h0.141
			l0.563-0.492v-0.07H380.414z M380.273,351.191h-0.07v0.07c0,0.188,0.563,0.306,1.688,0.352l0.07-0.07v-0.141L380.273,351.191z
			 M380.625,339.52h0.211c0.563-0.234,1.008-0.563,1.336-0.984l-0.211-0.281C381.163,338.816,380.719,339.238,380.625,339.52z
			 M382.031,337.902v0.07h0.422c0.844,0,1.382-0.96,1.617-2.883v-0.352l-0.07-0.141h-0.211
			C382.617,336.473,382.031,337.575,382.031,337.902z M383.508,375.238v0.141h0.281c0.844-0.141,1.266-0.422,1.266-0.844h-0.281
			C384.116,374.77,383.694,375.003,383.508,375.238z M384.281,328.129h-0.352v0.07c0.327,0.891,0.727,1.336,1.195,1.336
			c0.141,0,0.211-0.07,0.211-0.211C385.336,328.997,384.984,328.598,384.281,328.129z M385.688,337.621h-0.211l-0.211,0.352v0.07
			h0.211C385.522,338.043,385.593,337.902,385.688,337.621z M385.477,375.52h0.211c0.375,0,1.522-0.563,3.445-1.688v-0.141h-0.281
			C386.602,374.207,385.477,374.816,385.477,375.52z M387.023,351.191l-0.211,0.281l0.211,0.141l0.281-0.07v-0.352H387.023z
			 M388.008,352.176h-0.07c0,0.328,0.538,0.609,1.617,0.844l0.281-0.07v-0.141c-0.328-0.422-0.844-0.633-1.547-0.633h-0.211H388.008
			z M388.711,328.902v0.422h0.141c0.984-0.844,1.663-1.57,2.039-2.18v-0.211h-0.07C390.304,326.934,389.601,327.591,388.711,328.902
			z M389.273,324.684l-0.211,0.211v0.07c0.094,0.141,0.257,0.211,0.492,0.211h0.422v-0.141l-0.492-0.352H389.273z M390.117,355.973
			h-0.281c0,0.235,0.679,1.172,2.039,2.813v0.07h0.141v-0.281C391.406,356.841,390.773,355.973,390.117,355.973z M390.68,353.512
			h-0.492v0.141l2.742,2.461h0.141v-0.141C392.413,354.661,391.617,353.84,390.68,353.512z M391.523,368.418v0.141l0.211,0.141
			c1.171-0.328,1.758-0.938,1.758-1.828v-0.492h-0.211C392.109,367.269,391.523,367.949,391.523,368.418z M394.828,361.668h-0.352
			v0.141l0.211,0.281h0.141l0.281-0.281L394.828,361.668z M395.953,363.637v0.141c0,0.422,0.094,0.656,0.281,0.703h0.141
			c0.375-0.657,0.563-1.36,0.563-2.109l-0.07-0.07h-0.211C396.188,362.628,395.953,363.074,395.953,363.637z M396.445,361.176
			h-0.281v0.141l0.211,0.281l0.07-0.141V361.176z"/>
		<path fill="#FFFFFF" d="M401.789,323.207H402c0.375,0.328,0.844,0.492,1.406,0.492l0.914-0.422c6.374,0,9.563,0.188,9.563,0.563
			l0.07,0.492v1.195c0.422,0.938,0.633,1.828,0.633,2.672v1.125c-0.563,7.641-0.938,13.828-1.125,18.563
			c-0.095,0.281-0.188,0.773-0.281,1.477c0.046,0.188,0.257,0.281,0.633,0.281h0.211c2.531,0,3.797,0.306,3.797,0.914l-0.07,0.141
			v0.422c0.563,1.125,0.844,2.907,0.844,5.344l0.281,2.813l-0.211,0.141l-3.094,0.141h-7.031c-5.25,0-7.875-0.422-7.875-1.266
			c0-0.516-0.141-1.03-0.422-1.547c0.141-0.327,0.375-0.586,0.703-0.773h0.211c0.187,0.188,0.397,0.281,0.633,0.281h0.141
			c1.359,0,2.977-0.116,4.852-0.352v-0.141c-4.032-0.281-6.047-0.608-6.047-0.984l-0.07-0.563v-0.773l-0.141-1.828
			c0-0.468,1.758-0.703,5.273-0.703c0.468,0,0.703-1.055,0.703-3.164l0.844-18.492h-0.141c-1.313,0-1.969-0.094-1.969-0.281
			c0-0.046,0.07-0.116,0.211-0.211c-2.813,0-4.219-0.327-4.219-0.984c-0.188-0.046-0.281-0.234-0.281-0.563l0.352-0.844
			c0-0.187-0.141-0.445-0.422-0.773c0.375-0.375,0.633-1.125,0.773-2.25L401.789,323.207z M402.633,353.23l-0.492,0.141v0.07
			c0.375,0.376,1.828,0.587,4.359,0.633h0.492c0.375,0,0.608-0.116,0.703-0.352v-0.141
			C405.727,353.348,404.039,353.23,402.633,353.23z M402.914,324.613v0.281h0.352c1.219,0,1.828-0.094,1.828-0.281l-0.141-0.281
			h-0.211C403.522,324.332,402.914,324.427,402.914,324.613z M404.461,325.598h-1.266v0.211c0,0.188,0.327,0.281,0.984,0.281h0.773
			h0.211h2.32c0.703,0,1.055-0.116,1.055-0.352v-0.07C408.539,325.434,407.179,325.411,404.461,325.598z M409.102,309.777
			l2.391-0.352c1.641,0,2.929,0.844,3.867,2.531l0.492,2.25c-0.095,0.891-0.609,2.063-1.547,3.516
			c-0.609,0.609-1.547,0.914-2.813,0.914c-2.953,0-4.781-0.445-5.484-1.336c-0.703-0.938-1.031-2.25-0.984-3.938
			c-0.188,0-0.281-0.046-0.281-0.141v-0.141C406.148,310.879,407.601,309.777,409.102,309.777z M407.695,311.535v0.07
			c1.593-0.187,2.391-0.397,2.391-0.633l-0.352-0.141C408.374,311.067,407.695,311.301,407.695,311.535z M408.258,336.285
			l-0.211,9.07c0.046,0.328,0.116,0.492,0.211,0.492c0.141,0,0.234-0.211,0.281-0.633l-0.07-1.055
			c0.234-0.234,0.492-1.171,0.773-2.813v-0.422l-0.141-0.984c0.281-0.234,0.422-0.397,0.422-0.492
			c-0.188-0.516-0.281-1.03-0.281-1.547v-0.141c0.187,0,0.422-2.625,0.703-7.875c-0.141-0.375-0.281-0.563-0.422-0.563
			C408.82,329.324,408.398,331.645,408.258,336.285z M410.438,355.902l-0.914,0.07h-0.984v0.281l0.984,0.07l2.039-0.141v-0.211
			h-0.281L410.438,355.902z M408.891,313.574h0.07l0.422,0.07h0.141c0.516,0,0.844-0.187,0.984-0.563l-0.07-0.141h-0.844
			C409.218,312.941,408.984,313.152,408.891,313.574z M409.242,354.074l0.281,0.352c0.422,0,0.633-0.234,0.633-0.703h-0.352
			C409.523,353.723,409.336,353.84,409.242,354.074z M410.156,349.223l-0.211,0.281v0.352h0.211l0.281-0.211v-0.211l-0.211-0.211
			H410.156z M410.016,348.168v0.492h0.141c0.234-0.094,0.352-0.375,0.352-0.844v-0.492h-0.211
			C410.202,347.324,410.109,347.605,410.016,348.168z M410.719,325.668l-0.633-0.07v0.141c0.327,0,0.727,0.235,1.195,0.703h0.141
			c0.094,0,0.141-0.07,0.141-0.211h0.141c0.187,0,0.305,0.211,0.352,0.633h0.141l0.984-0.703v-0.422l-1.477-0.07H410.719z
			 M410.438,329.605l0.352,1.055l-0.492,1.266c0.187,0.422,0.352,0.633,0.492,0.633h0.07l0.141-0.422v-0.422
			c0-1.688,0.257-2.531,0.773-2.531l0.211-0.281v-0.281l-0.211-0.211h-0.422C410.742,328.41,410.438,328.809,410.438,329.605z
			 M411.352,341.559H411c-0.376,1.734-0.563,3.023-0.563,3.867h0.07c0.234,0,0.538-0.96,0.914-2.883v-0.492L411.352,341.559z
			 M410.719,316.527l-0.211,0.211v0.141h1.266l0.211-0.141l-0.211-0.211H410.719z M411.703,330.098l-0.281,0.07v0.422
			c0,0.281,0.116,0.492,0.352,0.633h0.211l0.211-0.281v-0.352C412.101,330.355,411.938,330.192,411.703,330.098z M412.266,315.262
			v0.211h0.281c0.327,0,0.586-0.164,0.773-0.492v-0.211h-0.141C412.852,314.77,412.547,314.935,412.266,315.262z M412.477,324.121
			l-0.211,0.211l0.281,0.211h0.141v-0.211L412.477,324.121z M413.953,312.941l-0.211,0.352v0.281h0.07l0.211-0.281v-0.352H413.953z
			 M416.063,353.863l-0.844,0.211c0.094,0.563,0.516,0.844,1.266,0.844h0.211v-0.211l-0.141-0.211c0-0.046,0.187-0.187,0.563-0.422
			v-0.352c0-0.327-0.095-0.516-0.281-0.563h-0.281C416.414,353.207,416.249,353.441,416.063,353.863z M415.781,350.91l-0.211,0.07
			c0.281,0.235,0.797,0.376,1.547,0.422v-0.211c0-0.187-0.306-0.281-0.914-0.281H415.781z M415.852,355.48l-0.211,0.281v0.141h0.141
			l0.211-0.281v-0.141H415.852z M417.609,358.293l-0.281,0.211v0.211h0.422l0.07-0.211l-0.07-0.211H417.609z"/>
		<path fill="#FFFFFF" d="M434.555,317.301l1.055-0.281c1.219,0,4.711,0.703,10.477,2.109c2.718,1.266,4.289,1.898,4.711,1.898
			c0.375-0.516,0.563-1.171,0.563-1.969v-0.141v-0.492c0-0.608,0.422-0.914,1.266-0.914c0.563-0.422,1.359-0.633,2.391-0.633
			c1.406,0,2.109,0.165,2.109,0.492l0.633,6.609v2.039c0,1.688-0.235,2.696-0.703,3.023c-0.422,0.422-0.75,0.633-0.984,0.633
			c-2.626-0.234-3.938-0.586-3.938-1.055c-0.328-1.125-1.149-1.944-2.461-2.461c-4.5-2.25-7.734-3.375-9.703-3.375L438,322.645
			c-2.345,0-3.727,0.446-4.148,1.336c-0.563,0.75-0.844,1.758-0.844,3.023v0.07c0,2.578,1.336,4.711,4.008,6.398
			c2.672,1.079,4.992,1.617,6.961,1.617c0,0.376,1.055,0.891,3.164,1.547c0.422,0.703,1.336,1.055,2.742,1.055
			c1.452,0.563,3.539,2.345,6.258,5.344l0.281,0.281v0.281c0,0.095-0.141,0.141-0.422,0.141v0.141
			c0.656,1.406,0.984,2.227,0.984,2.461c0,4.219-0.68,6.867-2.039,7.945c-0.609,1.266-1.898,2.508-3.867,3.727
			c-2.204,2.015-4.454,3.023-6.75,3.023h-2.461c-3.703-0.563-5.555-1.031-5.555-1.406c-2.156-1.5-3.399-2.25-3.727-2.25
			c-2.297-1.078-3.892-2.203-4.781-3.375h-0.281c-0.563,1.642-1.031,2.461-1.406,2.461c-2.953-0.468-4.43-0.984-4.43-1.547
			c-0.281-0.797-0.446-2.836-0.492-6.117l0.703-4.359c0-1.593,0.187-2.391,0.563-2.391l4.5-0.492c0.327,0,0.656,1.29,0.984,3.867
			l1.969,3.586c0,0.141,2.085,1.547,6.258,4.219c1.03,1.172,2.507,1.758,4.43,1.758h2.461c2.484,0,4.172-0.797,5.063-2.391
			c1.078-1.171,1.874-2.883,2.391-5.133v-0.211c0-1.359-1.195-3.069-3.586-5.133c-1.031-1.171-2.345-1.758-3.938-1.758
			c-0.938-0.422-3.048-0.867-6.328-1.336l-5.625-2.883l-2.742-2.32c-1.172-1.781-1.805-3.047-1.898-3.797l0.141-1.195l-0.281-2.672
			c0-0.656,0.397-1.43,1.195-2.32c0-0.563,1.125-1.852,3.375-3.867C432.938,318.848,434.179,317.958,434.555,317.301z
			 M422.25,349.926l0.07,1.758h0.07c0.327-0.187,0.492-1.289,0.492-3.305v-0.563l-0.141-0.141h-0.141
			C422.461,347.676,422.344,348.426,422.25,349.926z M424.5,353.582h-0.352v0.281l0.352,0.211l0.281-0.07v-0.141L424.5,353.582z
			 M424.992,344.301h-0.352v0.281l0.141,0.141l0.281-0.141L424.992,344.301z M427.664,325.527l-0.211,0.07
			c0.094,0.891,0.211,1.523,0.352,1.898h0.211v-0.07l-0.07-1.898H427.664z M427.734,351.191h-0.211v0.281
			c0.703,0.891,1.382,1.336,2.039,1.336h0.141v-0.211C428.672,351.66,428.016,351.191,427.734,351.191z M428.367,323.84h-0.352
			l-0.07,0.492v0.211l0.07,0.141l0.352-0.703V323.84z M429.281,332.137l-0.141,0.211v0.07l0.141,0.141h0.211v-0.211L429.281,332.137
			z M429.563,326.16l-0.281,0.211v0.211h0.211l0.352-0.281v-0.141H429.563z M430.336,323.066l-0.211,0.07l0.07,0.141v0.07
			l0.281-0.07v-0.211H430.336z M430.547,332.559h-0.07v0.141c0.327,1.031,0.656,1.547,0.984,1.547h0.281l0.352-0.352v-0.07
			C431.484,332.98,430.969,332.559,430.547,332.559z M430.617,324.121v0.07l0.141,0.07h0.281c1.03-0.749,1.547-1.359,1.547-1.828
			h-0.07h-0.141C431.858,322.434,431.273,322.996,430.617,324.121z M432.516,331.926l-0.141,0.07v0.141l0.141,0.211h0.703v-0.211
			C433.172,331.996,432.938,331.926,432.516,331.926z M434.063,332.559l-0.141,0.141v0.422l0.422,0.422h0.211l0.211-0.141v-0.352
			C434.578,332.724,434.344,332.559,434.063,332.559z M434.133,336.285h-0.07c0,0.328,0.305,0.587,0.914,0.773l0.141-0.07
			C435.117,336.754,434.789,336.521,434.133,336.285z M436.594,357.52l-2.039-0.141v0.141c0,0.188,0.608,0.422,1.828,0.703
			l0.281,0.281h0.352C436.921,357.848,436.78,357.52,436.594,357.52z M435.258,318.004v0.281c0,0.188,0.305,0.352,0.914,0.492
			c1.266-0.094,1.898-0.257,1.898-0.492v-0.281c0-0.327-0.657-0.492-1.969-0.492C435.726,317.512,435.444,317.677,435.258,318.004z
			 M436.313,334.246l-0.141,0.141v0.07c0.608,0.563,1.522,1.055,2.742,1.477l0.141-0.211
			C439.055,335.441,438.141,334.949,436.313,334.246z M437.227,321.098c0.187,0.188,0.422,0.281,0.703,0.281
			c0.468,0,0.96-0.257,1.477-0.773l-0.352-0.281h-0.773C437.578,320.324,437.227,320.582,437.227,321.098z M438.281,359.277h-0.141
			l0.281,0.352h0.563v-0.07C438.938,359.372,438.703,359.277,438.281,359.277z M438.914,358.504l-0.211-0.211v0.281h0.211V358.504z
			 M439.688,359.699c0.656,0.375,1.547,0.563,2.672,0.563h0.141l3.023-0.141v-0.141c-0.141-0.376-1.758-0.563-4.852-0.563
			C440.015,359.418,439.688,359.512,439.688,359.699z M440.461,321.941l-0.281,0.281c0,0.328,0.844,0.539,2.531,0.633v-0.211
			c0-0.187-0.703-0.422-2.109-0.703H440.461z M440.18,336.004c0,0.188,1.663,0.68,4.992,1.477l0.914,0.07h0.211v-0.07
			c-1.406-1.078-3.118-1.711-5.133-1.898C440.507,335.817,440.18,335.958,440.18,336.004z M441.023,338.043v0.281l1.195,0.422h0.773
			v-0.211C442.148,338.208,441.491,338.043,441.023,338.043z M446.438,359.277l-0.141,0.141v0.211l0.141,0.141h0.281
			c0.89-0.047,1.336-0.165,1.336-0.352l-0.211-0.141H446.438z M446.789,321.027v0.07c0,0.141,0.281,0.235,0.844,0.281h0.211v-0.07
			C447.844,321.215,447.492,321.122,446.789,321.027z M447.633,323.629l-0.07,0.07v0.141c1.452,0.844,2.366,1.266,2.742,1.266v-0.07
			C450.305,324.754,449.414,324.286,447.633,323.629z M448.547,339.027h-0.633v0.211c0.281,0.281,1.522,0.984,3.727,2.109
			c0.938,0.844,1.663,1.266,2.18,1.266h0.07l0.141-0.211C452.952,340.996,451.124,339.871,448.547,339.027z M449.531,353.723v0.281
			h0.141c0.422-0.281,0.773-0.679,1.055-1.195l-0.141-0.211C450.21,352.833,449.858,353.207,449.531,353.723z M450.305,343.316
			h-0.07v0.352c0,0.469,0.397,1.031,1.195,1.688h0.422v-0.563C451.852,344.23,451.335,343.738,450.305,343.316z M453.328,354.355
			l-2.391,1.969v0.141c0,0.095,0.094,0.141,0.281,0.141c0.563,0,1.336-0.749,2.32-2.25H453.328z M451.219,322.926l-0.141,0.141
			c0.656,0.517,1.406,0.868,2.25,1.055l0.07-0.141v-0.141c0-0.234-0.68-0.538-2.039-0.914H451.219z M451.57,348.801h-0.352v0.352
			l0.211,0.07l0.211-0.211L451.57,348.801z M453.117,327.988l-0.281,0.141c0.375,0.235,1.055,0.352,2.039,0.352l1.406-0.07v-0.281
			c-0.844-0.094-1.712-0.141-2.602-0.141H453.117z M453.609,317.863v0.141c0.516,0.844,0.96,1.266,1.336,1.266
			c0.375,0,0.656-0.234,0.844-0.703v-0.281C455.789,318.004,455.062,317.863,453.609,317.863z M455.578,348.801l-0.563,0.563v0.352
			l0.141,0.211h0.211c0.281-0.046,0.422-0.422,0.422-1.125H455.578z M456.07,320.043l-0.211,0.281l0.211,0.141h0.352v-0.422H456.07z
			"/>
		<path fill="#FFFFFF" d="M475.266,302.887c1.03,0,1.874,0.281,2.531,0.844c-0.563,1.501-0.938,3.867-1.125,7.102l-0.633,6.469
			c0,0.328,0.938,0.492,2.813,0.492c5.53,0,8.297,0.258,8.297,0.773c0.234,0,0.516,0.141,0.844,0.422
			c-0.469,0.609-0.703,1.055-0.703,1.336v0.211l0.211,1.406l-0.914,3.094c0,0.328,0.352,0.798,1.055,1.406v0.141
			c-1.125,0.376-2.039,0.563-2.742,0.563c-0.75-0.046-1.125-0.164-1.125-0.352v-0.141l0.633-0.07h0.492l0.281-0.281v-0.141
			l-0.281-0.07l-4.711,0.07l-3.867-0.07c-0.235,0-0.492,1.313-0.773,3.938h-0.07l-0.984-1.125l-0.211,0.773v0.422
			c0.046,1.313,0.211,2.016,0.492,2.109c0.187,0,0.352-0.422,0.492-1.266v-0.492h0.211l0.07,0.211l-0.492,6.75
			c0.563,9.703,1.055,14.555,1.477,14.555c0.234,1.501,0.819,2.25,1.758,2.25c0.516,0.328,1.148,0.492,1.898,0.492h1.266
			l4.219-0.211c0.094,0,0.257,1.242,0.492,3.727c0.094,0.75-0.06,1.301-0.457,1.652c-0.398,0.352-1.066,0.527-2.004,0.527
			l-5.414,0.141c-2.953,0-5.438-0.82-7.453-2.461c-1.313-0.468-1.969-1.874-1.969-4.219c-0.095-1.266-0.258-5.016-0.492-11.25
			l0.844-9.563l0.211-4.148v-0.563c-0.328-1.969-0.891-2.953-1.688-2.953h-2.109h-2.461c-0.703,0-1.406,0.165-2.109,0.492
			c-0.469-0.046-1.055-0.679-1.758-1.898l1.406-6.258c0-0.187,2.836-0.305,8.508-0.352c0-0.608,0.327-1.382,0.984-2.32
			c0.187-7.313,0.445-10.969,0.773-10.969v-0.211c0-0.094-0.117-0.141-0.352-0.141v-0.211
			C470.625,303.379,472.172,303.168,475.266,302.887z M461.133,318.566c0,0.328,0.211,0.492,0.633,0.492h1.055
			c1.922,0,3.702-0.094,5.344-0.281v-0.141c0-0.234-1.149-0.352-3.445-0.352h-2.953C461.344,318.285,461.133,318.38,461.133,318.566
			z M462.258,319.902l-0.141,0.141v0.422c0,0.469,1.57,0.703,4.711,0.703c1.593,0,2.391-0.116,2.391-0.352
			c0-0.563-2.063-0.867-6.188-0.914H462.258z M462.891,322.363l-0.281,0.211c0,0.188,0.116,0.281,0.352,0.281l1.758,0.07l1.898-0.07
			l0.07-0.07v-0.141c-0.563-0.187-1.617-0.281-3.164-0.281H462.891z M468.375,323.699l-5.766-0.211v0.141
			c0,0.328,1.781,0.492,5.344,0.492l0.563-0.141v-0.07L468.375,323.699z M469.359,342.332l0.211,1.969l-0.07,2.461l0.07,0.703h0.211
			c0.281,0,0.422-1.101,0.422-3.305v-1.617c0-2.155-0.095-3.234-0.281-3.234C469.594,339.309,469.405,340.317,469.359,342.332z
			 M471.75,351.402h-0.211v1.055l0.141,0.422h0.07l0.141-0.141v-1.195L471.75,351.402z M472.031,356.254h-0.141v0.281
			c0.141,1.172,0.656,1.758,1.547,1.758h0.703l0.141-0.211v-0.07c0-0.094-0.422-0.257-1.266-0.492L472.031,356.254z
			 M472.242,327.145v0.563l0.211,0.211c0.187-0.046,0.281-0.211,0.281-0.492v-0.281l-0.141-0.492h-0.07
			C472.336,326.699,472.242,326.863,472.242,327.145z M472.594,328.551h-0.141l-0.07,0.352v0.352l0.07,0.422h0.281v-0.633v-0.352
			L472.594,328.551z M472.594,304.785h-0.07v0.422h0.211v-0.281L472.594,304.785z M472.734,333.402h-0.211v0.563l0.211,0.281h0.141
			v-0.281L472.734,333.402z M473.086,307.527l-0.211-0.211c-0.095,0.469-0.141,1.079-0.141,1.828v0.281h0.141l0.211-1.195V307.527z
			 M473.297,310.48h-0.141l-0.281,6.961v0.07l0.211,0.211h0.141c0.327,0,0.492-0.586,0.492-1.758v-1.617l-0.141-3.445
			C473.483,310.621,473.391,310.48,473.297,310.48z M473.93,347.887h-0.141l-0.07,0.492v0.563c0,0.328,0.094,0.517,0.281,0.563
			h0.141c0.187-0.046,0.281-0.211,0.281-0.492C474.375,348.263,474.211,347.887,473.93,347.887z M473.789,355.832v0.07v0.422
			c0.046,0.188,0.211,0.376,0.492,0.563h0.492v-0.141C474.773,356.23,474.445,355.927,473.789,355.832z M474.492,350.91
			l-0.281,0.773c0,1.079,0.234,1.758,0.703,2.039l0.141-0.281v-0.633C475.008,351.638,474.819,351.005,474.492,350.91z
			 M474.844,328.41l-0.352-0.281v0.211l0.281,0.281h0.07V328.41z M475.617,304.926l-0.281,0.281v0.141l0.211,1.617h0.141
			c0.563-0.563,0.844-1.055,0.844-1.477v-0.281l-0.211-0.281H475.617z M477.234,320.535l-0.211,0.211v0.07
			c0,0.235,0.844,0.376,2.531,0.422l1.195-0.07l1.617,0.281h0.281c0.327,0,0.492-0.141,0.492-0.422h-0.07l-5.344-0.492H477.234z
			 M478.43,323.91h-0.352v0.211c0.046,0.095,0.867,0.328,2.461,0.703h0.141v-0.141C479.93,324.168,479.179,323.91,478.43,323.91z
			 M483.07,318.285l-0.914,0.352h-0.844h-1.195v0.211c1.03,0.281,1.922,0.422,2.672,0.422h1.617c0.094,0,0.141-0.07,0.141-0.211
			c-0.095-0.516-0.352-0.773-0.773-0.773H483.07z M481.594,357.238h0.281c1.733-0.281,2.602-0.586,2.602-0.914l-0.141-0.141
			C482.508,356.652,481.594,357.004,481.594,357.238z M482.016,324.613c1.266,0.422,2.391,0.633,3.375,0.633l0.281-0.281v-0.422
			l-0.211-0.211h-1.547C482.648,324.332,482.016,324.427,482.016,324.613z M484.828,322.082l-0.281,0.281v0.07l0.281,0.211h0.352
			c0.422,0,0.679-0.141,0.773-0.422l-0.211-0.141H484.828z M485.039,318.988l-0.211,0.141v0.141l0.211,0.07
			c0.468,0,0.727-0.094,0.773-0.281v-0.07H485.039z"/>
	</g>
</g>
<g id="Layer_12">
	<g>
		<rect x="8" y="383.998" fill="none" width="626" height="46.002"/>
		<path fill="#F6A821" d="M86.913,408.153c1.14,1.224,2.538,1.836,4.194,1.836c1.656,0,3.012-0.401,4.068-1.206
			c1.056-0.804,1.584-2.07,1.584-3.798c0-1.561-0.828-2.952-2.484-4.177c-0.72-0.527-1.524-1.049-2.412-1.565
			c-0.888-0.516-1.776-1.05-2.664-1.603c-0.889-0.552-1.692-1.127-2.412-1.728c-1.656-1.392-2.484-3.018-2.484-4.878
			c0-1.859,0.678-3.342,2.034-4.446c1.355-1.104,3.156-1.656,5.4-1.656s4.326,0.492,6.246,1.477c0,1.2-0.18,3.264-0.54,6.191
			l-0.54-0.144c0-2.256-0.552-3.942-1.656-5.058c-1.104-1.116-2.371-1.675-3.798-1.675c-1.428,0-2.574,0.414-3.438,1.242
			c-0.864,0.828-1.296,1.807-1.296,2.935s0.306,2.094,0.918,2.897c0.612,0.805,1.38,1.471,2.304,1.998
			c0.924,0.528,1.926,1.11,3.006,1.746c1.08,0.637,2.082,1.26,3.006,1.872c0.923,0.612,1.692,1.41,2.304,2.394
			c0.612,0.984,0.918,2.089,0.918,3.313c0,2.208-0.786,3.876-2.358,5.004c-1.572,1.128-3.462,1.692-5.67,1.692
			c-1.224,0-2.479-0.192-3.762-0.576c-1.284-0.384-2.334-0.948-3.15-1.692c0-1.535,0.144-3.479,0.432-5.832l0.54,0.108
			C85.203,405.153,85.772,406.929,86.913,408.153z"/>
		<path fill="#F6A821" d="M109.07,393.393v8.929c0,2.568,0.078,4.319,0.234,5.256c0.156,0.936,0.378,1.524,0.666,1.764
			c0.552,0.456,1.428,0.685,2.628,0.685l0.072,0.432h-9.72l0.072-0.432c0.6,0,1.067-0.024,1.404-0.072
			c0.336-0.048,0.654-0.18,0.954-0.396c0.3-0.216,0.516-0.461,0.648-0.737c0.132-0.276,0.246-0.738,0.342-1.387
			c0.12-0.84,0.18-2.543,0.18-5.111v-8.929c0-2.495-0.072-4.235-0.216-5.22c-0.144-0.983-0.36-1.596-0.648-1.836
			c-0.576-0.455-1.464-0.684-2.664-0.684l-0.072-0.396h9.72l-0.072,0.396c-1.201,0-2.077,0.229-2.628,0.684
			C109.37,386.841,109.07,389.193,109.07,393.393z"/>
		<path fill="#F6A821" d="M138.554,403.725v4.465c-1.2,0.744-2.646,1.367-4.338,1.871c-1.692,0.505-3.415,0.757-5.166,0.757
			c-3.816,0-6.9-1.236-9.252-3.708c-2.353-2.472-3.528-5.557-3.528-9.252c0-3.696,1.134-6.774,3.402-9.234s5.322-3.69,9.162-3.69
			c1.68,0,3.372,0.234,5.076,0.702c1.704,0.469,2.964,0.967,3.78,1.494v4.608l-0.396-0.072c-0.265-1.92-1.201-3.384-2.808-4.392
			c-1.608-1.009-3.492-1.513-5.652-1.513c-3.072,0-5.412,1.104-7.02,3.313c-1.608,2.208-2.412,5.13-2.412,8.766
			s0.84,6.57,2.52,8.802c1.68,2.232,4.122,3.349,7.326,3.349c3.204,0,5.466-1.008,6.786-3.024v-2.808c0-2.664-0.15-4.302-0.45-4.914
			c-0.3-0.612-1.17-0.918-2.61-0.918l-0.072-0.36h8.82l-0.072,0.36c-1.368,0-2.227,0.324-2.574,0.972
			C138.728,399.945,138.554,401.421,138.554,403.725z"/>
		<path fill="#F6A821" d="M167.462,393.357v17.279h-1.116l-16.956-21.42v13.032c0,2.4,0.108,4.128,0.324,5.184
			c0.216,1.057,0.576,1.753,1.08,2.089s1.332,0.504,2.484,0.504l0.072,0.432h-8.856l0.072-0.432c1.152,0,1.98-0.168,2.484-0.504
			s0.87-1.032,1.098-2.089c0.228-1.056,0.342-2.783,0.342-5.184v-8.892c0-2.4-0.114-4.122-0.342-5.166
			c-0.229-1.044-0.588-1.729-1.08-2.053c-0.492-0.323-1.326-0.485-2.502-0.485l-0.072-0.396h4.896l17.172,21.42v-13.319
			c0-2.376-0.114-4.092-0.342-5.148c-0.228-1.056-0.594-1.746-1.098-2.07c-0.504-0.323-1.345-0.485-2.52-0.485l-0.072-0.396h8.928
			l-0.072,0.396c-1.176,0-2.016,0.162-2.52,0.485c-0.504,0.324-0.864,1.015-1.08,2.07
			C167.57,389.266,167.462,390.981,167.462,393.357z"/>
		<path fill="#F6A821" d="M190.736,409.809c0.372-0.144,0.558-0.516,0.558-1.115s-0.636-2.641-1.908-6.12h-10.98
			c-1.032,3.048-1.548,4.962-1.548,5.742s0.198,1.26,0.594,1.439s1.11,0.271,2.142,0.271l0.072,0.432h-8.1l0.072-0.432
			c0.696,0,1.242-0.06,1.638-0.181c0.396-0.119,0.828-0.438,1.296-0.954c0.468-0.516,0.918-1.266,1.35-2.25
			c0.432-0.983,0.948-2.363,1.548-4.14l3.204-9.252c1.128-3.264,1.692-5.243,1.692-5.94c0-0.695-0.168-1.146-0.504-1.35
			c-0.336-0.203-0.984-0.306-1.944-0.306l-0.072-0.396h5.94l6.372,17.244c1.08,2.856,1.806,4.668,2.178,5.437
			c0.372,0.768,0.726,1.26,1.062,1.476c0.6,0.408,1.355,0.612,2.268,0.612l0.072,0.432h-9l0.072-0.432
			C189.722,410.025,190.364,409.953,190.736,409.809z M183.771,387.201l-5.076,14.508h10.404L183.771,387.201z"/>
		<path fill="#F6A821" d="M195.362,385.257h20.736v5.185l-0.36-0.072c0-2.928-2.904-4.393-8.712-4.393v16.345
			c0,3.552,0.204,5.712,0.612,6.479c0.144,0.288,0.396,0.54,0.756,0.756c0.36,0.217,0.744,0.349,1.152,0.396
			c0.408,0.048,0.972,0.072,1.692,0.072l0.072,0.432h-11.088l0.072-0.432c0.72,0,1.29-0.019,1.71-0.055
			c0.419-0.036,0.804-0.174,1.152-0.414c0.348-0.239,0.6-0.491,0.756-0.756c0.156-0.264,0.294-0.731,0.414-1.403
			c0.12-0.816,0.18-2.508,0.18-5.076v-16.345c-5.809,0-8.712,1.465-8.712,4.393l-0.432,0.072V385.257z"/>
		<path fill="#F6A821" d="M240.47,393.429v7.057c0,1.607-0.198,3.036-0.594,4.283c-0.396,1.249-0.906,2.245-1.53,2.988
			c-0.625,0.744-1.368,1.356-2.232,1.836c-1.464,0.816-3.145,1.225-5.04,1.225c-6.504,0-9.756-3.324-9.756-9.973v-7.452
			c0-2.567-0.078-4.319-0.234-5.256c-0.156-0.936-0.378-1.523-0.666-1.764c-0.552-0.456-1.428-0.684-2.628-0.684l-0.072-0.433h9.684
			l-0.072,0.433c-0.576,0-1.038,0.023-1.386,0.071c-0.348,0.049-0.666,0.181-0.954,0.396s-0.499,0.462-0.63,0.738
			c-0.132,0.275-0.247,0.737-0.342,1.386c-0.12,0.84-0.18,2.544-0.18,5.111v7.633c0,3.072,0.689,5.298,2.07,6.678
			c1.38,1.38,3.234,2.07,5.562,2.07c2.328,0,4.26-0.75,5.796-2.25c1.536-1.5,2.304-3.822,2.304-6.967v-7.128
			c0-2.399-0.108-4.127-0.324-5.184c-0.216-1.056-0.57-1.746-1.062-2.07c-0.492-0.324-1.326-0.485-2.502-0.485l-0.072-0.433h8.856
			l-0.072,0.433c-1.176,0-2.01,0.161-2.502,0.485c-0.492,0.324-0.852,1.015-1.08,2.07
			C240.583,389.302,240.47,391.029,240.47,393.429z"/>
		<path fill="#F6A821" d="M265.345,410.457c-0.6,0-1.194-0.306-1.782-0.918c-0.588-0.612-1.116-1.374-1.584-2.286
			c-0.468-0.912-1.014-1.901-1.638-2.97c-0.625-1.067-1.248-2.07-1.872-3.006c-0.624-0.937-1.416-1.729-2.376-2.376
			c-0.96-0.648-1.98-0.996-3.06-1.044v4.464c0,2.592,0.078,4.351,0.234,5.273c0.156,0.925,0.378,1.507,0.666,1.746
			c0.576,0.456,1.463,0.685,2.664,0.685l0.072,0.432h-9.648l0.072-0.432c1.176,0,2.04-0.217,2.592-0.648
			c0.456-0.36,0.72-1.535,0.792-3.528c0.048-0.792,0.072-1.967,0.072-3.527v-9.108c0-2.664-0.072-4.428-0.216-5.292
			s-0.36-1.404-0.648-1.62c-0.553-0.407-1.417-0.611-2.592-0.611l-0.072-0.433h8.352c6.048,0,9.072,2.04,9.072,6.12
			c0,1.752-0.618,3.222-1.854,4.41c-1.236,1.188-2.73,1.878-4.482,2.07c1.751,1.032,3.372,2.928,4.86,5.688
			c0.576,1.08,1.188,2.112,1.836,3.096c1.416,2.257,3.24,3.385,5.472,3.385l0.072,0.432H265.345z M253.033,386.085v11.052h2.268
			c1.824,0,3.336-0.468,4.536-1.403c1.2-0.937,1.8-2.328,1.8-4.177c0-3.647-2.088-5.472-6.264-5.472H253.033z"/>
		<path fill="#F6A821" d="M288.493,410.457h-18.144l0.072-0.432c1.2,0,2.076-0.229,2.628-0.685c0.6-0.504,0.9-2.844,0.9-7.02v-8.929
			c0-2.567-0.078-4.325-0.234-5.273c-0.156-0.948-0.378-1.542-0.666-1.782c-0.552-0.455-1.428-0.684-2.628-0.684l-0.072-0.396
			h16.812v5.185l-0.432-0.072c0-1.607-0.846-2.724-2.538-3.348s-4.278-0.937-7.758-0.937v11.34c2.304,0,3.96-0.119,4.968-0.359
			s1.656-0.606,1.944-1.099c0.288-0.491,0.432-1.313,0.432-2.466l0.396-0.072v8.748l-0.396-0.071c0-1.176-0.144-2.004-0.432-2.484
			c-0.288-0.479-0.936-0.834-1.944-1.063c-1.008-0.228-2.664-0.342-4.968-0.342v4.645c0,2.544,0.09,4.236,0.27,5.076
			c0.18,0.84,0.582,1.403,1.206,1.691c6.768,0,10.152-1.439,10.152-4.32l0.432-0.071V410.457z"/>
		<path fill="#F6A821" d="M307.069,386.823c0,0.42,0.03,0.744,0.09,0.972c0.06,0.229,0.108,0.414,0.144,0.559
			c0.036,0.144,0.09,0.342,0.162,0.594c0.072,0.252,0.138,0.468,0.198,0.647c0.06,0.181,0.149,0.438,0.27,0.774
			c0.12,0.336,0.222,0.612,0.306,0.828c0.083,0.216,0.204,0.54,0.36,0.972c0.156,0.432,0.282,0.78,0.378,1.044l5.616,15.3
			l5.328-15.3c1.056-3.048,1.584-4.955,1.584-5.724c0-0.768-0.204-1.26-0.612-1.477c-0.408-0.216-1.116-0.323-2.124-0.323
			l-0.072-0.433h8.82l-0.072,0.433c-0.912,0-1.602,0.06-2.07,0.18s-0.961,0.444-1.477,0.972c-0.516,0.528-0.99,1.272-1.422,2.232
			s-0.959,2.34-1.583,4.14l-6.048,17.424h-2.268l-6.372-17.424c-1.344-3.6-2.292-5.724-2.844-6.372
			c-0.216-0.264-0.51-0.504-0.882-0.72s-0.732-0.342-1.08-0.378c-0.348-0.036-0.822-0.054-1.422-0.054l-0.072-0.433h9.72
			l-0.072,0.433c-0.913,0-1.554,0.084-1.926,0.252S307.069,386.403,307.069,386.823z"/>
		<path fill="#F6A821" d="M341.972,409.809c0.372-0.144,0.558-0.516,0.558-1.115s-0.636-2.641-1.907-6.12h-10.98
			c-1.032,3.048-1.548,4.962-1.548,5.742s0.198,1.26,0.594,1.439c0.396,0.18,1.11,0.271,2.143,0.271l0.071,0.432h-8.1l0.072-0.432
			c0.696,0,1.241-0.06,1.638-0.181c0.396-0.119,0.828-0.438,1.296-0.954c0.468-0.516,0.918-1.266,1.35-2.25
			c0.433-0.983,0.948-2.363,1.549-4.14l3.203-9.252c1.128-3.264,1.692-5.243,1.692-5.94c0-0.695-0.168-1.146-0.504-1.35
			c-0.336-0.203-0.984-0.306-1.944-0.306l-0.071-0.396h5.939l6.372,17.244c1.08,2.856,1.806,4.668,2.178,5.437
			c0.372,0.768,0.726,1.26,1.063,1.476c0.6,0.408,1.355,0.612,2.268,0.612l0.072,0.432h-9l0.072-0.432
			C340.957,410.025,341.6,409.953,341.972,409.809z M335.006,387.201l-5.076,14.508h10.404L335.006,387.201z"/>
		<path fill="#F6A821" d="M358.91,385.257c6.359,0,9.54,2.425,9.54,7.272c0,2.136-0.751,3.888-2.25,5.256
			c-1.501,1.368-3.282,2.052-5.347,2.052s-3.815-0.336-5.256-1.008v3.492c0,2.568,0.078,4.319,0.234,5.256
			c0.155,0.936,0.378,1.524,0.666,1.764c0.552,0.456,1.428,0.685,2.628,0.685l0.071,0.432h-9.72l0.072-0.432
			c1.2,0,2.075-0.229,2.628-0.685c0.6-0.504,0.9-2.844,0.9-7.02v-8.929c0-2.567-0.078-4.319-0.234-5.256
			c-0.156-0.936-0.378-1.523-0.666-1.764c-0.553-0.456-1.428-0.684-2.628-0.684l-0.072-0.433H358.91z M355.598,386.085v11.844
			c1.248,0.673,2.718,1.009,4.41,1.009s3.054-0.534,4.086-1.603c1.031-1.067,1.548-2.67,1.548-4.806c0-2.664-0.864-4.44-2.592-5.328
			c-1.416-0.744-3.12-1.116-5.112-1.116H355.598z"/>
		<path fill="#F6A821" d="M382.957,384.933c3.863,0,6.953,1.183,9.27,3.547c2.316,2.363,3.475,5.424,3.475,9.18
			s-1.122,6.889-3.366,9.396c-2.244,2.509-5.286,3.763-9.126,3.763s-6.93-1.261-9.271-3.78c-2.34-2.521-3.51-5.657-3.51-9.414
			c0-3.756,1.122-6.81,3.366-9.162C376.039,386.109,379.093,384.933,382.957,384.933z M383.191,409.989
			c3.06,0,5.387-1.11,6.983-3.33c1.596-2.22,2.395-5.142,2.395-8.767c0-3.623-0.841-6.552-2.521-8.783
			c-1.68-2.232-4.05-3.349-7.11-3.349c-3.06,0-5.388,1.104-6.983,3.313c-1.597,2.208-2.395,5.13-2.395,8.766s0.84,6.57,2.521,8.802
			C377.761,408.873,380.131,409.989,383.191,409.989z"/>
		<path fill="#F6A821" d="M417.157,410.457c-0.601,0-1.194-0.306-1.782-0.918c-0.589-0.612-1.116-1.374-1.584-2.286
			s-1.015-1.901-1.638-2.97c-0.625-1.067-1.249-2.07-1.872-3.006c-0.625-0.937-1.417-1.729-2.376-2.376
			c-0.961-0.648-1.98-0.996-3.061-1.044v4.464c0,2.592,0.078,4.351,0.234,5.273c0.155,0.925,0.378,1.507,0.666,1.746
			c0.576,0.456,1.464,0.685,2.664,0.685l0.071,0.432h-9.647l0.072-0.432c1.175,0,2.039-0.217,2.592-0.648
			c0.455-0.36,0.72-1.535,0.792-3.528c0.048-0.792,0.072-1.967,0.072-3.527v-9.108c0-2.664-0.072-4.428-0.217-5.292
			c-0.144-0.864-0.359-1.404-0.647-1.62c-0.553-0.407-1.417-0.611-2.592-0.611l-0.072-0.433h8.352c6.049,0,9.072,2.04,9.072,6.12
			c0,1.752-0.618,3.222-1.854,4.41c-1.236,1.188-2.73,1.878-4.482,2.07c1.752,1.032,3.372,2.928,4.86,5.688
			c0.576,1.08,1.188,2.112,1.836,3.096c1.416,2.257,3.24,3.385,5.472,3.385l0.072,0.432H417.157z M404.845,386.085v11.052h2.269
			c1.823,0,3.335-0.468,4.536-1.403c1.199-0.937,1.8-2.328,1.8-4.177c0-3.647-2.088-5.472-6.265-5.472H404.845z"/>
		<path fill="#F6A821" d="M448.404,410.457h-17.208l0.072-0.432c0.576,0,1.038-0.024,1.386-0.072s0.666-0.18,0.954-0.396
			c0.288-0.216,0.498-0.461,0.63-0.737s0.246-0.738,0.342-1.387c0.12-0.84,0.181-2.543,0.181-5.111v-8.929
			c0-3.575-0.169-5.747-0.504-6.516c-0.313-0.672-0.841-1.056-1.585-1.152c-0.359-0.048-0.827-0.071-1.403-0.071l-0.072-0.396h9.684
			l-0.071,0.396c-1.2,0-2.076,0.229-2.628,0.684c-0.601,0.504-0.9,2.856-0.9,7.056v9.469c0,2.592,0.084,4.314,0.252,5.166
			s0.563,1.422,1.188,1.71c6.191,0,9.288-1.477,9.288-4.429l0.396-0.071V410.457z"/>
		<path fill="#F6A821" d="M457.224,393.393v8.929c0,2.568,0.078,4.319,0.234,5.256c0.155,0.936,0.378,1.524,0.666,1.764
			c0.552,0.456,1.428,0.685,2.628,0.685l0.071,0.432h-9.72l0.072-0.432c0.6,0,1.067-0.024,1.404-0.072
			c0.335-0.048,0.653-0.18,0.954-0.396c0.3-0.216,0.516-0.461,0.647-0.737s0.246-0.738,0.342-1.387
			c0.12-0.84,0.181-2.543,0.181-5.111v-8.929c0-2.495-0.072-4.235-0.217-5.22c-0.144-0.983-0.359-1.596-0.647-1.836
			c-0.576-0.455-1.464-0.684-2.664-0.684l-0.072-0.396h9.72l-0.071,0.396c-1.2,0-2.076,0.229-2.628,0.684
			C457.523,386.841,457.224,389.193,457.224,393.393z"/>
		<path fill="#F6A821" d="M476.412,384.933c3.863,0,6.953,1.183,9.27,3.547c2.316,2.363,3.475,5.327,3.475,8.892
			c0,3.563-0.918,6.552-2.754,8.964s-4.362,3.847-7.578,4.302c0.72,0.168,2.01,0.672,3.87,1.513c1.859,0.84,3.558,1.26,5.094,1.26
			c1.535,0,3.012-0.48,4.428-1.44l0.433,0.469c-0.816,0.887-1.698,1.589-2.646,2.105c-0.948,0.516-2.064,0.774-3.348,0.774
			c-1.284,0-2.628-0.324-4.032-0.973c-1.404-0.647-2.839-1.296-4.302-1.943c-1.465-0.648-2.677-0.973-3.637-0.973
			s-1.836,0.132-2.628,0.396l-0.18-0.72c0.456-0.217,1.212-0.385,2.268-0.505c-3.144-0.552-5.64-2.021-7.487-4.409
			c-1.849-2.389-2.772-5.352-2.772-8.893c0-3.54,1.122-6.485,3.366-8.838C469.494,386.109,472.548,384.933,476.412,384.933z
			 M476.646,409.989c3.06,0,5.387-1.11,6.983-3.33c1.596-2.22,2.395-5.142,2.395-8.767c0-3.623-0.841-6.552-2.521-8.783
			c-1.68-2.232-4.05-3.349-7.11-3.349c-3.06,0-5.388,1.104-6.983,3.313c-1.597,2.208-2.395,5.13-2.395,8.766s0.84,6.57,2.521,8.802
			C471.216,408.873,473.586,409.989,476.646,409.989z"/>
		<path fill="#F6A821" d="M514.248,393.429v7.057c0,1.607-0.198,3.036-0.594,4.283c-0.396,1.249-0.906,2.245-1.53,2.988
			c-0.624,0.744-1.368,1.356-2.232,1.836c-1.464,0.816-3.144,1.225-5.04,1.225c-6.504,0-9.756-3.324-9.756-9.973v-7.452
			c0-2.567-0.078-4.319-0.233-5.256c-0.156-0.936-0.378-1.523-0.666-1.764c-0.553-0.456-1.429-0.684-2.628-0.684l-0.072-0.433h9.684
			l-0.071,0.433c-0.576,0-1.039,0.023-1.387,0.071c-0.348,0.049-0.666,0.181-0.954,0.396c-0.287,0.216-0.498,0.462-0.63,0.738
			c-0.132,0.275-0.246,0.737-0.342,1.386c-0.12,0.84-0.18,2.544-0.18,5.111v7.633c0,3.072,0.689,5.298,2.069,6.678
			s3.234,2.07,5.563,2.07c2.327,0,4.26-0.75,5.796-2.25s2.304-3.822,2.304-6.967v-7.128c0-2.399-0.107-4.127-0.323-5.184
			c-0.217-1.056-0.57-1.746-1.063-2.07s-1.326-0.485-2.502-0.485l-0.072-0.433h8.856l-0.072,0.433c-1.176,0-2.01,0.161-2.502,0.485
			s-0.853,1.015-1.08,2.07C514.361,389.302,514.248,391.029,514.248,393.429z"/>
		<path fill="#F6A821" d="M526.848,393.393v8.929c0,2.568,0.078,4.319,0.234,5.256c0.155,0.936,0.378,1.524,0.666,1.764
			c0.552,0.456,1.428,0.685,2.628,0.685l0.071,0.432h-9.72l0.072-0.432c0.6,0,1.067-0.024,1.404-0.072
			c0.335-0.048,0.653-0.18,0.954-0.396c0.3-0.216,0.516-0.461,0.647-0.737s0.246-0.738,0.342-1.387
			c0.12-0.84,0.181-2.543,0.181-5.111v-8.929c0-2.495-0.072-4.235-0.217-5.22c-0.144-0.983-0.359-1.596-0.647-1.836
			c-0.576-0.455-1.464-0.684-2.664-0.684l-0.072-0.396h9.72l-0.071,0.396c-1.2,0-2.076,0.229-2.628,0.684
			C527.147,386.841,526.848,389.193,526.848,393.393z"/>
		<path fill="#F6A821" d="M541.319,385.257c4.127,0,7.224,0.36,9.288,1.08c0.936,0.337,1.932,0.816,2.987,1.44
			c1.057,0.624,1.914,1.368,2.574,2.231c0.66,0.864,1.212,1.969,1.656,3.313c0.443,1.344,0.666,2.85,0.666,4.518
			c0,1.669-0.223,3.168-0.666,4.5c-0.444,1.332-0.996,2.43-1.656,3.294s-1.476,1.614-2.448,2.25c-0.972,0.637-1.89,1.11-2.754,1.422
			c-0.863,0.313-1.824,0.564-2.88,0.756c-1.416,0.265-2.868,0.396-4.355,0.396h-9.685l0.072-0.432c1.2,0,2.075-0.229,2.628-0.685
			c0.6-0.504,0.9-2.844,0.9-7.02v-8.929c0-2.567-0.078-4.325-0.234-5.273s-0.378-1.542-0.666-1.782
			c-0.553-0.455-1.428-0.684-2.628-0.684l-0.072-0.396H541.319z M541.499,409.593c0.288,0.024,0.882,0.036,1.782,0.036
			c0.899,0,1.884-0.096,2.952-0.288c1.067-0.191,2.172-0.558,3.312-1.098s2.124-1.229,2.952-2.07
			c0.828-0.84,1.512-1.974,2.052-3.401s0.811-3.061,0.811-4.896s-0.265-3.462-0.792-4.878c-0.528-1.416-1.213-2.55-2.053-3.402
			c-0.84-0.852-1.824-1.554-2.951-2.105c-1.993-0.937-4.188-1.404-6.589-1.404c-1.079,0-2.016,0.072-2.808,0.216v16.452
			c0,2.592,0.072,4.309,0.216,5.148C540.527,408.741,540.898,409.305,541.499,409.593z"/>
	</g>
	<g>
	</g>
	<g>
	</g>
	<g>
	</g>
	<g>
	</g>
	<g>
	</g>
	<g>
	</g>
	<g>
	</g>
	<g>
	</g>
	<g>
	</g>
	<g>
	</g>
	<g>
	</g>
	<g>
	</g>
	<g>
	</g>
	<g>
	</g>
	<g>
	</g>
</g>
</svg>
